<?xml version="1.0" encoding="UTF-8" standalone="no"?>
<!-- Generator: Adobe Illustrator 25.2.0, SVG Export Plug-In . SVG Version: 6.00 Build 0)  -->

<svg
   xmlns:dc="http://purl.org/dc/elements/1.1/"
   xmlns:cc="http://creativecommons.org/ns#"
   xmlns:rdf="http://www.w3.org/1999/02/22-rdf-syntax-ns#"
   xmlns:svg="http://www.w3.org/2000/svg"
   xmlns="http://www.w3.org/2000/svg"
   xmlns:sodipodi="http://sodipodi.sourceforge.net/DTD/sodipodi-0.dtd"
   xmlns:inkscape="http://www.inkscape.org/namespaces/inkscape"
   version="1.1"
   id="Layer_1"
   x="0px"
   y="0px"
   viewBox="0 0 300 62"
   xml:space="preserve"
   sodipodi:docname="criteologo.svg"
   width="300"
   height="62"
   inkscape:version="0.92.3 (2405546, 2018-03-11)"><metadata
   id="metadata54"><rdf:RDF><cc:Work
       rdf:about=""><dc:format>image/svg+xml</dc:format><dc:type
         rdf:resource="http://purl.org/dc/dcmitype/StillImage" /><dc:title></dc:title></cc:Work></rdf:RDF></metadata><defs
   id="defs52" /><sodipodi:namedview
   pagecolor="#ffffff"
   bordercolor="#666666"
   borderopacity="1"
   objecttolerance="10"
   gridtolerance="10"
   guidetolerance="10"
   inkscape:pageopacity="0"
   inkscape:pageshadow="2"
   inkscape:window-width="1366"
   inkscape:window-height="706"
   id="namedview50"
   showgrid="false"
   inkscape:zoom="2.9293108"
   inkscape:cx="187.03551"
   inkscape:cy="30.966144"
   inkscape:window-x="-8"
   inkscape:window-y="-8"
   inkscape:window-maximized="1"
   inkscape:current-layer="Layer_1" />
<style
   type="text/css"
   id="style33">
	.st0{fill:#FE5000;}
</style>
<g
   id="Layer_2_1_"
   transform="matrix(0.28065508,0,0,0.28065508,-60.102955,-57.009234)">
	<g
   id="Layer_1-2">
		<path
   class="st0"
   d="m 609.1,401.4 -35.8,-53.2 c -2.7,-4.1 -1.7,-9.6 2.4,-12.3 0,0 0,0 0.1,0 16.4,-11 26.7,-30.7 26.7,-53.4 0,-38.9 -32.5,-69.6 -72.6,-69.6 h -86.1 c -3.3,0 -5.9,2.6 -5.9,5.9 0,0 0,0 0,0 v 37.7 c 0,1.6 1.2,2.8 2.8,2.9 29.1,1.6 52.6,26.7 52.6,55.4 0,28.9 -23.7,53.5 -52.6,55.1 -1.5,0.1 -2.8,1.4 -2.8,2.9 v 36.6 c 0,3.3 2.6,5.9 5.9,5.9 h 50 c 3.3,0 5.9,-2.6 5.9,-5.9 v 0 -17.6 c 0,-12.5 10.8,-15.6 19.1,-5.8 l 21,26.3 c 1.9,1.9 4.5,3 7.1,3 h 54.8 c 4.9,0 8.9,-3.9 8.9,-8.8 0.1,-1.9 -0.5,-3.6 -1.5,-5.1 z"
   id="path35"
   inkscape:connector-curvature="0"
   style="fill:#fe5000" />
		<path
   class="st0"
   d="M 636.6,212.7 H 680 c 3.3,0 5.9,2.6 5.9,5.9 v 190.6 c 0,3.3 -2.6,5.9 -5.9,5.9 v 0 h -43.4 c -3.3,0 -5.9,-2.6 -5.9,-5.9 V 218.6 c 0,-3.2 2.6,-5.9 5.9,-5.9 z"
   id="path37"
   inkscape:connector-curvature="0"
   style="fill:#fe5000" />
		<path
   class="st0"
   d="m 756.3,262.7 h -45.7 c -3.2,0 -5.9,-2.6 -5.9,-5.8 v -38.2 c 0,-3.3 2.6,-5.9 5.9,-5.9 H 862 c 3.3,0 5.9,2.6 5.9,5.9 v 38.2 c 0,3.3 -2.6,5.9 -5.9,5.9 v 0 h -44.6 c -1.6,0 -2.9,1.3 -2.9,3 v 143.5 c 0,3.3 -2.6,5.9 -5.9,5.9 v 0 h -43.4 c -3.3,0 -5.9,-2.6 -5.9,-5.9 V 265.6 c -0.1,-1.6 -1.4,-2.9 -3,-2.9 z"
   id="path39"
   inkscape:connector-curvature="0"
   style="fill:#fe5000" />
		<path
   class="st0"
   d="m 893.4,212.7 h 137.5 c 3.3,0 5.9,2.6 5.9,5.9 v 37.9 c 0,3.3 -2.6,5.9 -5.9,5.9 v 0 h -85.2 c -1.7,0 -3,1.3 -3,3 v 22 c 0,1.6 1.3,2.9 2.9,2.9 0,0 0,0 0.1,0 h 79.1 c 3.3,0 5.9,2.6 5.9,5.9 v 33.5 c 0,3.3 -2.6,5.9 -5.9,5.9 v 0 h -79.1 c -1.6,0 -3,1.3 -3,2.9 v 24.9 c 0,1.6 1.4,2.9 3,2.9 h 87.5 c 3.3,0 5.9,2.6 5.9,5.9 v 37 c 0,3.3 -2.6,5.9 -5.9,5.9 v 0 H 893.4 c -3.3,0 -5.9,-2.6 -5.9,-5.9 v 0 -190.6 c 0,-3.2 2.6,-5.9 5.9,-5.9 0,0 0,0 0,0 z"
   id="path41"
   inkscape:connector-curvature="0"
   style="fill:#fe5000" />
		<path
   class="st0"
   d="m 1165,209.8 c -61.8,0 -111.5,47 -111.5,104.8 0,57.8 49.7,104.5 111.5,104.5 62.1,0 111.8,-46.8 111.8,-104.5 -0.1,-57.7 -49.7,-104.8 -111.8,-104.8 z m 0,160 c -30.4,0.1 -55.1,-24.5 -55.2,-54.8 0,-0.1 0,-0.2 0,-0.3 0,-29.9 24.7,-55.5 55.2,-55.5 30.5,0 55.5,25.8 55.5,55.5 0,29.8 -25.2,55.1 -55.5,55.1 z"
   id="path43"
   inkscape:connector-curvature="0"
   style="fill:#fe5000" />
		<path
   class="st0"
   d="m 333.6,209.8 c 31.5,0 59.7,13.4 79.8,34.9 2.2,2.4 2.1,6.1 -0.3,8.3 -0.1,0.1 -0.1,0.1 -0.2,0.2 l -28.6,23.9 c -2.3,1.9 -5.7,1.8 -7.9,-0.3 -11.4,-11.2 -26.8,-17.5 -42.8,-17.6 -30.5,0 -55.2,23.2 -55.2,54.9 0,31.7 24.7,54.6 55.2,54.6 16,-0.1 31.3,-6.4 42.8,-17.6 2.2,-2.1 5.6,-2.3 7.9,-0.4 l 28.6,24 c 2.5,2.1 2.8,5.8 0.8,8.3 -0.1,0.1 -0.1,0.2 -0.2,0.2 -20.1,21.4 -48.3,34.9 -79.8,34.9 -61,0 -110.4,-43.8 -110.4,-103.9 0,-60.1 49.3,-104.4 110.3,-104.4 z"
   id="path45"
   inkscape:connector-curvature="0"
   style="fill:#fe5000" />
	</g>
</g>
</svg>