<svg id="그룹_3733" data-name="그룹 3733" xmlns="http://www.w3.org/2000/svg" xmlns:xlink="http://www.w3.org/1999/xlink" width="45.354" height="40.108" viewBox="0 0 45.354 40.108">
  <defs>
    <linearGradient id="linear-gradient" x1="0.5" x2="0.5" y2="1" gradientUnits="objectBoundingBox">
      <stop offset="0" stop-color="#72a4ff"/>
      <stop offset="1" stop-color="#004dde"/>
    </linearGradient>
    <clipPath id="clip-path">
      <rect id="사각형_5352" data-name="사각형 5352" width="45.354" height="40.108" fill="url(#linear-gradient)"/>
    </clipPath>
  </defs>
  <g id="그룹_3728" data-name="그룹 3728" clip-path="url(#clip-path)">
    <path id="패스_15086" data-name="패스 15086" d="M20.673,29.45A152.875,152.875,0,0,0,9.606,40.108c-2.645,0-2.782-.659-2.476-2.364a1.323,1.323,0,0,1,.129-.891c.317-.778.712-1.524,1.025-2.3,1.157-2.875,2.3-5.758,3.435-8.639.094-.237.145-.492.238-.811-.471-.294-.9-.584-1.352-.84C8,22.786,5.4,21.29,2.773,19.862A6.779,6.779,0,0,1,.4,17.612a2.592,2.592,0,0,1-.294-.555,1.071,1.071,0,0,1,.638-1.535c.98-.367,9.557-1.82,12.838-2.253,1.094-.144,2.191-.264,3.283-.417A7.239,7.239,0,0,0,17.8,12.6c.26-.528.528-1.038.767-1.561a71.906,71.906,0,0,0,3.718-9.366,2.192,2.192,0,0,1,1.73-1.6,1.4,1.4,0,0,1,1.718.742,14.993,14.993,0,0,1,.81,1.88c.831,2.38,1.633,4.77,2.45,7.155.133.39.289.771.441,1.172.536,0,1.006.036,1.468-.006,2.145-.2,4.286-.432,6.431-.619a3.292,3.292,0,0,0,1.581-.628q2.753-1.838,5.536-3.631c.232-.149.461-.471.909-.221-1.12,1.388-2.57,2.428-3.788,3.76l.889.636c-.692.231-1.22.436-1.764.581a2.731,2.731,0,0,0-1.22.678q-3.54,3.369-7.092,6.726a2.86,2.86,0,0,0-.3.445c.075.265.135.571.247.858A44.6,44.6,0,0,0,37.466,29.5c.092.128.168.269.27.388a4.56,4.56,0,0,1,.642,4.885c-.388,1.084-.8,1.308-1.917.883q-5.962-2.277-11.907-4.6c-1.27-.495-2.52-1.043-3.881-1.609M26.2,13.879c-2.045.439-3.933.857-5.827,1.241a1.513,1.513,0,0,0-1.092,1.016c-.883,1.9-1.782,3.8-2.661,5.7a7.082,7.082,0,0,0-.278.945l3.313,1.658,7.938-6.383A32.649,32.649,0,0,0,26.2,13.879m2.75,7.931a26.463,26.463,0,0,0-4.827,4.628c2.674,1.219,5.395,2.283,8.136,3.295a1.9,1.9,0,0,0,.56-.018c-.517-.949-1.005-1.8-1.45-2.675-.427-.838-.8-1.7-1.212-2.549a25.419,25.419,0,0,0-1.206-2.68m-15.183-.591c.738-1.6,1.441-3.121,2.132-4.647.03-.065-.056-.183-.089-.277a73.492,73.492,0,0,0-7.213,1.467c-.127.043-.217.2-.327.3a28.225,28.225,0,0,0,5.5,3.156M21.4,12.136a16.307,16.307,0,0,0,4.07-.615A46.087,46.087,0,0,0,23.849,6.4a24.382,24.382,0,0,0-2.45,5.737m9.5,3.277a17.581,17.581,0,0,0,3.936-3.01,11.337,11.337,0,0,0-4.645.892,6.012,6.012,0,0,0,.709,2.118m-14.641,11.9-1.563-.7a15.713,15.713,0,0,0-2.053,4.647,35.674,35.674,0,0,0,3.616-3.943" transform="translate(0 0)" fill="url(#linear-gradient)"/>
  </g>
</svg>
