<?xml version="1.0" encoding="utf-8"?>
<!-- Generator: Adobe Illustrator 27.3.1, SVG Export Plug-In . SVG Version: 6.00 Build 0)  -->
<svg version="1.1" id="레이어_1" xmlns="http://www.w3.org/2000/svg" xmlns:xlink="http://www.w3.org/1999/xlink" x="0px"
	 y="0px" viewBox="0 0 56 40.1" style="enable-background:new 0 0 56 40.1;" xml:space="preserve">
<style type="text/css">
	.st0{opacity:0.6;}
	.st1{fill:#FFFFFF;}
	.st2{enable-background:new    ;}
</style>
<g id="그룹_5327" transform="translate(-270.004 -589)">
	<g id="합치기_58" transform="translate(-17686.994 526.999)" class="st0">
		<path class="st1" d="M17984.7,101.6l-3.4-5.7h-16.2c-4.4,0-8-3.6-8-8V70c0-4.4,3.6-8,8-8h40c4.4,0,8,3.6,8,8v17.9c0,4.4-3.6,8-8,8
			h-15.2l-3.5,5.7c-0.2,0.3-0.5,0.5-0.9,0.5C17985.2,102.1,17984.9,101.9,17984.7,101.6z"/>
		<path class="st1" d="M17985.5,101.1L17985.5,101.1l3.7-6.2h15.7c3.9,0,7-3.1,7-7V70c0-3.9-3.1-7-7-7h-40c-3.9,0-7,3.1-7,7v17.9
			c0,3.9,3.1,7,7,7h16.8l0.3,0.5L17985.5,101.1C17985.5,101.1,17985.5,101.1,17985.5,101.1 M17985.5,102.1c-0.3,0-0.7-0.2-0.9-0.5
			l-3.4-5.7h-16.2c-4.4,0-8-3.6-8-8V70c0-4.4,3.6-8,8-8h40c4.4,0,8,3.6,8,8v17.9c0,4.4-3.6,8-8,8h-15.2l-3.5,5.7
			C17986.2,101.9,17985.9,102.1,17985.5,102.1z"/>
	</g>
	<g class="st2">
		<path class="st1" d="M280.8,606.8c0-3.1,2.3-5.3,5.5-5.3c1.5,0,2.9,0.5,3.8,1.5l-0.7,0.7c-0.9-0.9-1.9-1.2-3.1-1.2
			c-2.5,0-4.4,1.9-4.4,4.3c0,2.5,1.9,4.3,4.4,4.3c1.2,0,2.2-0.4,3.1-1.3l0.7,0.7c-0.9,1-2.3,1.5-3.9,1.5
			C283.1,612.1,280.8,609.8,280.8,606.8z"/>
		<path class="st1" d="M291.5,600.9h1.1V612h-1.1V600.9z"/>
		<path class="st1" d="M294.6,601.6c0-0.4,0.3-0.8,0.8-0.8s0.8,0.3,0.8,0.7c0,0.4-0.3,0.8-0.8,0.8
			C294.9,602.4,294.6,602,294.6,601.6z M294.8,604.1h1.1v7.9h-1.1V604.1z"/>
		<path class="st1" d="M297.3,608.1c0-2.4,1.7-4,4.1-4c1.3,0,2.5,0.5,3.1,1.6l-0.8,0.5c-0.5-0.8-1.4-1.2-2.3-1.2c-1.7,0-3,1.2-3,3.1
			c0,1.9,1.3,3.1,3,3.1c0.9,0,1.8-0.4,2.3-1.2l0.8,0.5c-0.6,1-1.8,1.6-3.1,1.6C299,612.1,297.3,610.4,297.3,608.1z"/>
		<path class="st1" d="M308.6,608l-1.9,1.7v2.2h-1.1v-11.1h1.1v7.5l4.7-4.3h1.3l-3.4,3.2l3.7,4.7h-1.3L308.6,608z"/>
		<path class="st1" d="M313.6,611.3c0-0.4,0.3-0.8,0.8-0.8c0.5,0,0.8,0.3,0.8,0.8c0,0.4-0.3,0.8-0.8,0.8
			C313.9,612.1,313.6,611.7,313.6,611.3z M313.8,601.5h1.3l-0.2,7.4H314L313.8,601.5z"/>
	</g>
</g>
</svg>
