<?xml version="1.0" encoding="utf-8"?>
<!-- Generator: Adobe Illustrator 27.3.1, SVG Export Plug-In . SVG Version: 6.00 Build 0)  -->
<svg version="1.1" id="레이어_1" xmlns="http://www.w3.org/2000/svg" xmlns:xlink="http://www.w3.org/1999/xlink" x="0px"
	 y="0px" viewBox="0 0 20 20" style="enable-background:new 0 0 20 20;" xml:space="preserve">
<style type="text/css">
	.st0{fill:#2F64DF;}
	.st1{fill:#FFFFFF;}
</style>
<g id="그룹_6341" transform="translate(-466 -5812)">
	<g id="그룹_4322" transform="translate(32 -120.652)">
		<circle id="타원_394" class="st0" cx="444" cy="5942.7" r="10"/>
	</g>
	<path class="st1" d="M474.9,5826C474.9,5826,474.9,5826,474.9,5826c-0.2,0-0.4-0.1-0.6-0.3l-3.2-3.8c-0.3-0.3-0.2-0.8,0.1-1.1
		c0.3-0.3,0.8-0.2,1.1,0.1l2.6,3.2l4.8-5.7c0.3-0.3,0.7-0.4,1.1-0.1c0.3,0.3,0.4,0.7,0.1,1.1l-5.4,6.4
		C475.3,5825.9,475.1,5826,474.9,5826z"/>
</g>
</svg>
