<?xml version="1.0" encoding="utf-8"?>
<!-- Generator: Adobe Illustrator 27.2.0, SVG Export Plug-In . SVG Version: 6.00 Build 0)  -->
<svg version="1.1" id="레이어_1" xmlns="http://www.w3.org/2000/svg" xmlns:xlink="http://www.w3.org/1999/xlink" x="0px"
	 y="0px" viewBox="0 0 229.6 90.4" style="enable-background:new 0 0 229.6 90.4;" xml:space="preserve">
<style type="text/css">
	.st0{clip-path:url(#SVGID_00000041286625329505350040000011794548230175664020_);}
	.st1{fill:#B30046;}
	.st2{fill:#FFFFFF;}
</style>
<g>
	<g>
		<defs>
			<rect id="SVGID_1_" width="229.6" height="90.4"/>
		</defs>
		<clipPath id="SVGID_00000060740860245968948140000009037277832306958012_">
			<use xlink:href="#SVGID_1_"  style="overflow:visible;"/>
		</clipPath>
		<g id="그룹_1" style="clip-path:url(#SVGID_00000060740860245968948140000009037277832306958012_);">
			<path id="패스_1" class="st1" d="M0,78.6c0-0.4,0.1-0.8,0.4-1c0.3-0.3,0.7-0.4,1-0.4c0.4,0,0.8,0.1,1.1,0.4s0.4,0.7,0.4,1v10.3
				c0,0.4-0.1,0.8-0.4,1c-0.3,0.3-0.7,0.4-1.1,0.4s-0.8-0.1-1-0.4c-0.3-0.3-0.4-0.7-0.4-1C0,88.9,0,78.6,0,78.6z"/>
			<path id="패스_2" class="st1" d="M15.2,85.6c0.1-0.1,0.1-0.3,0.2-0.4c0.1-0.3,0.3-0.6,0.5-0.8c0.2-0.3,0.5-0.5,0.9-0.5
				c0.3,0,0.6,0.1,0.8,0.3c0.2,0.2,0.4,0.4,0.4,0.7c0,0.2,0,0.4-0.1,0.5c-0.1,0.2-0.2,0.4-0.3,0.6c-0.1,0.2-0.3,0.4-0.4,0.6
				s-0.3,0.4-0.5,0.5l1.1,1.3c0.2,0.2,0.3,0.4,0.2,0.7c0,0.3-0.1,0.6-0.4,0.8c-0.3,0.2-0.6,0.4-1,0.3c-0.2,0-0.3,0-0.5-0.1
				c-0.1-0.1-0.3-0.2-0.4-0.4l-0.8-0.9c-0.5,0.5-1.1,0.9-1.8,1.2c-0.7,0.2-1.5,0.4-2.2,0.4c-0.6,0-1.2-0.1-1.8-0.3
				c-0.5-0.2-0.9-0.4-1.2-0.8c-0.3-0.3-0.6-0.7-0.7-1.1C7,87.8,7,87.4,7,86.9c0-0.8,0.2-1.6,0.7-2.3c0.5-0.7,1.2-1.2,2-1.6
				c-0.3-0.4-0.6-0.8-0.9-1.2c-0.2-0.4-0.3-0.8-0.3-1.3c0-0.9,0.3-1.7,1-2.3c0.7-0.6,1.6-0.9,2.5-0.8c0.6,0,1.2,0.1,1.7,0.3
				c0.4,0.2,0.8,0.4,1.1,0.7c0.3,0.3,0.5,0.6,0.6,1c0.4,1,0.2,2.1-0.4,2.9c-0.4,0.6-1,1-1.6,1.3L15.2,85.6z M11.2,84.5
				c-0.5,0.2-0.9,0.6-1.3,1c-0.3,0.3-0.5,0.7-0.4,1.1c-0.1,0.9,0.6,1.7,1.5,1.7c0.1,0,0.1,0,0.2,0c0.4,0,0.9-0.1,1.3-0.3
				c0.4-0.2,0.7-0.5,1.1-0.8L11.2,84.5z M11,81.2c0.3,0.3,0.6,0.6,0.9,0.9H12c0.4-0.2,0.7-0.5,1-0.8s0.4-0.6,0.4-1
				c0-0.3-0.1-0.6-0.4-0.8c-0.5-0.5-1.3-0.5-1.9,0c-0.2,0.2-0.4,0.5-0.4,0.8C10.7,80.6,10.8,80.9,11,81.2"/>
			<path id="패스_3" class="st1" d="M27.4,89.3c-0.1,0.3-0.3,0.6-0.6,0.8c-0.7,0.3-1.5,0.3-2.3,0c-0.3-0.2-0.5-0.5-0.6-0.8
				l-3.6-10c-0.1-0.3-0.2-0.6-0.2-0.8c0-0.4,0.1-0.7,0.4-1c0.3-0.2,0.7-0.3,1-0.3s0.7,0.1,0.9,0.3c0.3,0.3,0.4,0.6,0.5,1l2.6,8.6
				l0,0l2.7-8.6c0.3-0.8,0.7-1.3,1.4-1.3c0.4,0,0.7,0.1,1,0.3c0.3,0.2,0.5,0.6,0.4,1c0,0.3-0.1,0.6-0.2,0.8L27.4,89.3z"/>
			<path id="패스_4" class="st1" d="M32.8,78.6c0-0.8,0.7-1.5,1.5-1.4c0.4,0,0.7,0.2,1,0.4c0.3,0.3,0.4,0.7,0.4,1v10.3
				c0,0.4-0.1,0.8-0.4,1c-0.6,0.6-1.5,0.6-2,0.1c-0.3-0.3-0.5-0.7-0.5-1.1V78.6z"/>
			<path id="패스_5" class="st1" d="M38.4,79.1c0-0.5,0.1-0.9,0.4-1.3c0.4-0.3,0.8-0.4,1.3-0.4h6.8c0.4,0,0.8,0.1,1.1,0.3
				c0.5,0.5,0.5,1.3,0,1.8l0,0c-0.3,0.2-0.7,0.3-1.1,0.3h-5.6v2.8h4.9c0.3,0,0.7,0.1,1,0.2c0.5,0.5,0.5,1.2,0,1.7l0,0
				c-0.3,0.2-0.6,0.3-1,0.2h-4.9v3.1H47c0.4,0,0.8,0.1,1.1,0.3c0.5,0.5,0.5,1.3,0,1.8l0,0c-0.3,0.2-0.7,0.3-1.1,0.3h-6.9
				c-0.5,0-0.9-0.1-1.3-0.4c-0.3-0.4-0.5-0.8-0.4-1.3C38.4,88.5,38.4,79.1,38.4,79.1z"/>
			<path id="패스_6" class="st1" d="M62.6,89c-0.1,0.4-0.3,0.8-0.6,1.1c-0.3,0.2-0.8,0.3-1.2,0.3s-0.8-0.1-1.2-0.3
				c-0.3-0.3-0.5-0.7-0.6-1.1l-1.9-7.7l0,0L55.2,89c-0.1,0.4-0.3,0.8-0.6,1.1c-0.3,0.2-0.8,0.4-1.2,0.3c-0.4,0-0.8-0.1-1.2-0.3
				c-0.3-0.3-0.5-0.7-0.6-1.1l-2.5-9.6C49,79.1,49,78.9,49,78.6c0-0.4,0.1-0.7,0.4-1c0.3-0.2,0.6-0.3,1-0.3c0.7,0,1.3,0.5,1.4,1.2
				l1.7,8.4l0,0l2-8.5c0-0.3,0.2-0.6,0.4-0.8c0.3-0.2,0.7-0.3,1.1-0.3c0.4,0,0.8,0.1,1.2,0.3c0.3,0.3,0.4,0.7,0.5,1l1.9,8.2l0,0
				l1.7-8.4c0-0.7,0.6-1.2,1.3-1.2c0.4,0,0.7,0.1,1,0.3c0.3,0.2,0.4,0.6,0.4,1c0,0.3-0.1,0.6-0.1,0.8L62.6,89z"/>
			<path id="패스_7" class="st2" d="M72.1,81.2c0.3-0.8,0.7-1.5,1.2-2.1s1.2-1.1,2-1.4c0.8-0.4,1.7-0.5,2.7-0.5
				c0.7,0,1.5,0.1,2.1,0.3c0.6,0.2,1.1,0.5,1.6,0.8c0.4,0.3,0.7,0.7,1,1.1c0.2,0.3,0.3,0.7,0.3,1c0.1,0.6-0.4,1.2-1,1.3
				c-0.1,0-0.2,0-0.3,0c-0.3,0-0.6-0.1-0.8-0.2c-0.2-0.2-0.4-0.4-0.6-0.7c-0.3-0.4-0.6-0.7-1-1s-1-0.4-1.5-0.3
				c-0.9,0-1.8,0.4-2.4,1.2c-0.7,0.9-1,2-1,3.2c0,0.6,0.1,1.1,0.2,1.7c0.1,0.5,0.3,1,0.6,1.4c0.3,0.4,0.6,0.7,1.1,0.9
				c0.5,0.2,1,0.3,1.6,0.3c0.5,0,0.9-0.1,1.3-0.4s0.7-0.7,1-1.1c0.2-0.3,0.4-0.5,0.6-0.7s0.4-0.2,0.7-0.2c0.4,0,0.7,0.1,1,0.3
				c0.3,0.2,0.4,0.5,0.4,0.8c0,0.5-0.1,0.9-0.4,1.3c-0.3,0.5-0.6,0.9-1.1,1.2c-0.5,0.4-1,0.6-1.6,0.8c-2.3,0.7-4.8,0.2-6.6-1.4
				c-1.2-1.4-1.8-3.1-1.6-4.9C71.7,82.9,71.9,82,72.1,81.2"/>
			<path id="패스_8" class="st2" d="M84.7,81c0.3-0.8,0.7-1.5,1.2-2.1c0.6-0.6,1.3-1.1,2-1.4c1.8-0.6,3.7-0.6,5.5,0
				c0.8,0.3,1.5,0.8,2,1.4c0.6,0.6,1,1.3,1.2,2.1c0.3,0.8,0.4,1.7,0.4,2.6s-0.1,1.8-0.4,2.6c-0.3,0.8-0.7,1.5-1.2,2.2
				c-0.6,0.6-1.2,1.1-2,1.5c-0.9,0.4-1.8,0.6-2.8,0.5c-1,0-2-0.2-2.9-0.5c-0.8-0.3-1.5-0.8-2-1.4s-0.9-1.4-1.2-2.2
				c-0.3-0.9-0.4-1.8-0.4-2.7C84.3,82.7,84.4,81.9,84.7,81 M87.4,85.4c0.1,0.5,0.3,1,0.6,1.4c0.3,0.4,0.7,0.7,1.1,1
				c0.5,0.2,1.1,0.4,1.7,0.3c0.6,0,1.1-0.1,1.6-0.3c0.4-0.2,0.8-0.6,1.1-1c0.3-0.4,0.5-0.9,0.6-1.4c0.1-0.6,0.2-1.2,0.2-1.8
				c0.1-1.1-0.3-2.1-0.9-3c-1.4-1.5-3.6-1.5-5.1-0.2c-0.1,0.1-0.1,0.1-0.2,0.2c-0.6,0.9-1,1.9-0.9,3C87.2,84.2,87.2,84.8,87.4,85.4"
				/>
			<path id="패스_9" class="st2" d="M99.2,78.6c0-0.4,0.1-0.8,0.4-1.1c0.3-0.2,0.7-0.3,1.1-0.3h0.8c0.4,0,0.7,0.1,1,0.3
				c0.3,0.3,0.5,0.6,0.6,1l2.5,8.1l0,0l2.5-8.1c0.1-0.4,0.3-0.7,0.6-1c0.3-0.2,0.7-0.3,1-0.3h0.8c0.4,0,0.8,0.1,1.1,0.3
				c0.3,0.3,0.5,0.7,0.4,1.1v10.3c0,0.4-0.1,0.7-0.3,1c-0.5,0.5-1.4,0.5-1.9,0l0,0c-0.2-0.3-0.3-0.6-0.3-1V81l0,0l-2.5,8.5
				c-0.1,0.5-0.7,0.9-1.2,0.8c-0.6,0.1-1.1-0.3-1.2-0.8l-2.7-8.4l0,0V89c0,0.4-0.1,0.7-0.3,1c-0.5,0.5-1.4,0.5-1.9,0l0,0
				c-0.2-0.3-0.3-0.6-0.3-1L99.2,78.6z"/>
			<path id="패스_10" class="st2" d="M114.9,78.6c0-0.4,0.1-0.8,0.4-1.1c0.3-0.2,0.7-0.3,1.1-0.3h0.8c0.4,0,0.7,0.1,1,0.3
				c0.3,0.3,0.5,0.6,0.6,1l2.5,8.1l0,0l2.5-8.1c0.1-0.4,0.3-0.7,0.6-1c0.3-0.2,0.7-0.3,1-0.3h0.8c0.4,0,0.8,0.1,1.1,0.3
				c0.3,0.3,0.5,0.7,0.4,1.1v10.3c0,0.4-0.1,0.7-0.3,1c-0.5,0.5-1.4,0.5-1.9,0l0,0c-0.2-0.3-0.3-0.6-0.3-1V81l0,0l-2.7,8.4
				c-0.1,0.5-0.7,0.9-1.2,0.8c-0.6,0.1-1.1-0.3-1.2-0.8l-2.7-8.4l0,0v7.9c0,0.4-0.1,0.7-0.3,1c-0.5,0.5-1.4,0.5-1.9,0l0,0
				c-0.2-0.3-0.3-0.6-0.3-1V78.6z"/>
			<path id="패스_11" class="st2" d="M130.6,78.6c0-0.8,0.7-1.5,1.5-1.4c0.4,0,0.7,0.2,1,0.4c0.3,0.3,0.4,0.7,0.4,1v6.9
				c-0.1,0.7,0.2,1.4,0.7,1.9c1.2,0.8,2.7,0.8,3.9,0c0.5-0.5,0.7-1.2,0.7-1.9v-6.9c0-0.8,0.7-1.5,1.5-1.4c0.4,0,0.7,0.2,1,0.4
				c0.3,0.3,0.4,0.7,0.4,1v6.7c0.1,1.4-0.4,2.8-1.5,3.8c-2.4,1.7-5.7,1.7-8.1,0c-1-1-1.6-2.4-1.5-3.8L130.6,78.6z"/>
			<path id="패스_12" class="st2" d="M144.2,78.9c0-0.5,0.1-0.9,0.4-1.3c0.4-0.3,0.9-0.4,1.4-0.4c0.6,0,1.1,0.3,1.4,0.8l5.1,8.2
				l0,0v-7.5c0-0.8,0.6-1.4,1.4-1.4c0.8,0,1.4,0.6,1.4,1.4l0,0v10c0,0.5-0.1,1-0.4,1.3c-0.3,0.3-0.8,0.5-1.3,0.5c-0.3,0-0.7,0-1-0.2
				c-0.3-0.1-0.5-0.4-0.6-0.6l-5-7.9l0,0v7.3c0,0.8-0.6,1.4-1.4,1.4c-0.8,0-1.4-0.6-1.4-1.4L144.2,78.9z"/>
			<path id="패스_13" class="st2" d="M158,78.6c0-0.8,0.7-1.5,1.5-1.4c0.4,0,0.7,0.2,1,0.4c0.3,0.3,0.4,0.7,0.4,1v10.3
				c0,0.4-0.1,0.8-0.4,1c-0.6,0.6-1.5,0.6-2,0.1c-0.3-0.3-0.5-0.7-0.5-1.1V78.6z"/>
			<path id="패스_14" class="st2" d="M163.6,81.2c0.3-0.8,0.7-1.5,1.2-2.1s1.2-1.1,2-1.4c0.8-0.4,1.7-0.5,2.7-0.5
				c0.7,0,1.5,0.1,2.1,0.3c0.6,0.2,1.1,0.5,1.6,0.8c0.4,0.3,0.7,0.7,1,1.1c0.2,0.3,0.3,0.7,0.3,1c0.1,0.6-0.4,1.2-1,1.3
				c-0.1,0-0.2,0-0.3,0c-0.3,0-0.6-0.1-0.8-0.2c-0.2-0.2-0.4-0.4-0.6-0.7c-0.3-0.4-0.6-0.7-1-1s-1-0.4-1.5-0.3
				c-0.9,0-1.8,0.4-2.4,1.2c-0.7,0.9-1,2-1,3.2c0,0.6,0.1,1.1,0.2,1.7c0.1,0.5,0.3,1,0.6,1.4s0.6,0.7,1.1,0.9c0.5,0.2,1,0.3,1.6,0.3
				c0.5,0,0.9-0.1,1.3-0.4c0.4-0.3,0.7-0.7,1-1.1c0.2-0.3,0.4-0.5,0.6-0.7c0.2-0.2,0.4-0.2,0.7-0.2c0.4,0,0.7,0.1,1,0.3
				c0.3,0.2,0.4,0.5,0.4,0.8c0,0.5-0.1,0.9-0.4,1.3c-0.3,0.5-0.6,0.9-1.1,1.2c-0.5,0.4-1,0.6-1.6,0.8c-2.3,0.7-4.8,0.2-6.6-1.4
				c-1.2-1.4-1.8-3.1-1.6-4.9C163.2,82.9,163.3,82,163.6,81.2"/>
			<path id="패스_15" class="st2" d="M179.1,78.1c0.1-0.3,0.3-0.5,0.5-0.7c0.3-0.1,0.6-0.2,0.9-0.2h0.7c0.3,0,0.7,0.1,1,0.2
				c0.3,0.2,0.5,0.5,0.6,0.8l3.5,9.7c0.1,0.2,0.1,0.4,0.2,0.6c0.1,0.2,0.1,0.3,0.1,0.5c0,0.3-0.1,0.7-0.4,0.9
				c-0.3,0.2-0.6,0.4-1,0.4c-0.6,0.1-1.1-0.3-1.3-0.8l-0.7-2.1h-4.7l-0.8,2.1c-0.2,0.5-0.7,0.9-1.3,0.8c-0.4,0-0.7-0.1-1-0.3
				c-0.3-0.2-0.4-0.6-0.4-0.9c0-0.2,0-0.3,0.1-0.5s0.1-0.4,0.2-0.6L179.1,78.1z M180.9,80.3L180.9,80.3l-1.7,5.1h3.4L180.9,80.3z"/>
			<path id="패스_16" class="st2" d="M189.8,79.9h-2.7c-0.4,0-0.8-0.1-1.1-0.3c-0.5-0.4-0.6-1.1-0.2-1.6c0-0.1,0.1-0.1,0.2-0.2
				c0.3-0.2,0.7-0.3,1.1-0.3h8.4c0.4,0,0.8,0.1,1.1,0.3c0.5,0.4,0.6,1.1,0.2,1.6c0,0.1-0.1,0.1-0.2,0.2c-0.3,0.2-0.7,0.3-1.1,0.3
				h-2.7v9c0,0.4-0.1,0.8-0.4,1.1c-0.6,0.6-1.5,0.6-2,0.1c-0.3-0.3-0.5-0.7-0.5-1.1L189.8,79.9z"/>
			<path id="패스_17" class="st2" d="M198.5,78.6c0-0.8,0.7-1.5,1.5-1.4c0.4,0,0.7,0.2,1,0.4c0.3,0.3,0.4,0.7,0.4,1v10.3
				c0,0.4-0.1,0.8-0.4,1c-0.6,0.6-1.5,0.6-2,0.1c-0.3-0.3-0.5-0.7-0.5-1.1V78.6z"/>
			<path id="패스_18" class="st2" d="M203.9,81c0.3-0.8,0.7-1.5,1.2-2.1c0.6-0.6,1.3-1.1,2-1.4c1.8-0.6,3.7-0.6,5.5,0
				c0.8,0.3,1.5,0.8,2,1.4c0.6,0.6,1,1.3,1.2,2.1c0.3,0.8,0.4,1.7,0.4,2.6s-0.1,1.8-0.4,2.6c-0.3,0.8-0.7,1.5-1.2,2.2
				c-0.6,0.6-1.2,1.1-2,1.5c-0.9,0.4-1.8,0.6-2.8,0.5c-1,0-2-0.2-2.9-0.5c-0.8-0.3-1.5-0.8-2-1.4s-0.9-1.4-1.2-2.2
				c-0.3-0.9-0.4-1.8-0.4-2.7C203.5,82.7,203.6,81.9,203.9,81 M206.6,85.4c0.1,0.5,0.3,1,0.6,1.4s0.7,0.7,1.1,1
				c0.5,0.2,1.1,0.4,1.7,0.3c0.6,0,1.1-0.1,1.6-0.3c0.4-0.2,0.8-0.6,1.1-1s0.5-0.9,0.6-1.4c0.1-0.6,0.2-1.2,0.2-1.8
				c0.1-1.1-0.3-2.1-0.9-3c-1.4-1.5-3.6-1.5-5.1-0.2c-0.1,0.1-0.1,0.1-0.2,0.2c-0.6,0.9-1,1.9-0.9,3
				C206.4,84.2,206.5,84.8,206.6,85.4"/>
			<path id="패스_19" class="st2" d="M218.4,78.9c0-0.5,0.1-0.9,0.4-1.3c0.4-0.3,0.9-0.4,1.4-0.4c0.6,0,1.1,0.3,1.4,0.8l5.1,8.2
				l0,0v-7.5c0-0.8,0.6-1.4,1.4-1.4c0.8,0,1.4,0.6,1.4,1.4l0,0v10c0,0.5-0.1,1-0.4,1.3c-0.3,0.3-0.8,0.5-1.3,0.5c-0.3,0-0.7,0-1-0.2
				c-0.3-0.1-0.5-0.4-0.6-0.6l-5-7.9l0,0v7.3c0,0.8-0.6,1.4-1.4,1.4s-1.4-0.6-1.4-1.4L218.4,78.9z"/>
			<path id="패스_20" class="st1" d="M115.8,41.6c-6.7,0-12.1-5.4-12.1-12.1s5.4-12.1,12.1-12.1s12.1,5.4,12.1,12.1l0,0
				C127.9,36.2,122.5,41.6,115.8,41.6 M115.8,20.8c-4.8,0-8.7,3.9-8.7,8.7s3.9,8.7,8.7,8.7c4.8,0,8.7-3.9,8.7-8.7
				S120.6,20.8,115.8,20.8"/>
			<path id="패스_21" class="st2" d="M101.3,40.7c0.3-0.5,0.3-1.2-0.1-1.7c-5.2-8.1-2.9-18.9,5.1-24.1c2.8-1.8,6.1-2.8,9.5-2.8
				h39.8c0.9,0,1.7-0.7,1.7-1.6c0-0.9-0.7-1.7-1.6-1.7h-0.1h-39.8C104.3,8.8,95,18.1,95,29.6c0,3,0.7,6,1.9,8.7h-5.8
				c-4.9-13.6,2.2-28.5,15.8-33.4c2.8-1,5.8-1.5,8.8-1.5h32.1c0.9,0,1.7-0.8,1.6-1.7c0-0.9-0.7-1.6-1.6-1.6H83.4
				c-0.9,0-1.7,0.7-1.7,1.6s0.7,1.7,1.6,1.7h0.1h18.7c-2.7,1.4-5.2,3.2-7.3,5.4h-19c-0.9,0-1.7,0.8-1.6,1.7c0,0.9,0.7,1.6,1.6,1.6
				H92c-1.2,1.7-2.3,3.5-3.1,5.4H68c-0.9,0-1.7,0.8-1.6,1.7c0,0.9,0.7,1.6,1.6,1.6h19.6c-0.7,2.3-1.1,4.7-1.3,7.1H58.8
				c-0.9,0-1.7,0.8-1.6,1.7c0,0.9,0.7,1.6,1.6,1.6h27.5c0.1,2.4,0.6,4.8,1.3,7H68c-0.9,0-1.7,0.8-1.6,1.7c0,0.9,0.7,1.6,1.6,1.6
				h31.8C100.4,41.6,101,41.2,101.3,40.7"/>
			<path id="패스_22" class="st2" d="M172.8,27.8h-27.5c-0.1-2.4-0.6-4.8-1.3-7.1h19.6c0.9,0,1.7-0.8,1.7-1.7s-0.7-1.7-1.7-1.7
				h-31.8c-0.9,0-1.7,0.8-1.7,1.7c0,0.3,0.1,0.6,0.3,0.9c5.2,8.1,2.9,18.9-5.1,24.1c-2.8,1.8-6.1,2.8-9.5,2.8H75.7
				c-0.9,0-1.7,0.8-1.6,1.7c0,0.9,0.7,1.6,1.6,1.6h40.1c11.5,0,20.8-9.3,20.8-20.8c0-3-0.7-6-1.9-8.7h5.8
				c4.8,13.6-2.2,28.5-15.8,33.4c-2.8,1-5.8,1.5-8.8,1.5H83.4c-0.9,0-1.7,0.8-1.7,1.7c0,0.9,0.7,1.7,1.7,1.7h64.4
				c0.9,0,1.7-0.7,1.7-1.7c0-0.9-0.7-1.7-1.7-1.7l0,0h-18.4c2.7-1.4,5.2-3.3,7.4-5.5h19.7c0.9,0,1.7-0.8,1.7-1.7s-0.7-1.7-1.7-1.7
				h-16.9c1.2-1.7,2.3-3.5,3.1-5.3h20.9c0.9,0,1.7-0.8,1.6-1.7c0-0.9-0.7-1.6-1.6-1.6H144c0.7-2.3,1.1-4.6,1.2-7h27.5
				c0.9,0,1.7-0.8,1.6-1.7C174.4,28.6,173.7,27.9,172.8,27.8"/>
		</g>
	</g>
</g>
</svg>
