<svg xmlns="http://www.w3.org/2000/svg" xmlns:xlink="http://www.w3.org/1999/xlink" width="190" height="33" viewBox="0 0 190 33">
  <defs>
    <clipPath id="clip-path">
      <rect id="사각형_2" data-name="사각형 2" width="190" height="33" fill="#647178"/>
    </clipPath>
  </defs>
  <g id="그룹_3" data-name="그룹 3" clip-path="url(#clip-path)">
    <path id="패스_23" data-name="패스 23" d="M110.224,7.514a1.008,1.008,0,0,1,.287-.751,1.173,1.173,0,0,1,1.532,0,1.021,1.021,0,0,1,.281.751v7.354a1.022,1.022,0,0,1-.281.753,1.175,1.175,0,0,1-1.532,0,1.009,1.009,0,0,1-.287-.753Z" transform="translate(-33.875 -2.053)" fill="#647178"/>
    <path id="패스_24" data-name="패스 24" d="M123.46,12.541c.051-.1.107-.206.167-.316a5,5,0,0,1,.332-.594.838.838,0,0,1,.666-.392.877.877,0,0,1,.577.215.645.645,0,0,1,.256.506,1.132,1.132,0,0,1-.083.385,3.308,3.308,0,0,1-.218.462,4.167,4.167,0,0,1-.3.462,2.9,2.9,0,0,1-.345.385l.768.91a.763.763,0,0,1,.179.506.732.732,0,0,1-.263.556,1,1,0,0,1-.7.24.564.564,0,0,1-.332-.089,1.816,1.816,0,0,1-.3-.265l-.589-.67a3.67,3.67,0,0,1-1.339.84,4.9,4.9,0,0,1-1.634.259,3.478,3.478,0,0,1-1.274-.214,2.551,2.551,0,0,1-.9-.576,2.376,2.376,0,0,1-.524-.808,2.524,2.524,0,0,1-.173-.917,2.577,2.577,0,0,1,.544-1.648,4.054,4.054,0,0,1,1.467-1.131,5.655,5.655,0,0,1-.654-.885,1.833,1.833,0,0,1-.23-.922,2.008,2.008,0,0,1,.743-1.65,2.8,2.8,0,0,1,1.82-.6,3.42,3.42,0,0,1,1.236.2,2.277,2.277,0,0,1,.827.525,2.024,2.024,0,0,1,.448.7,2.213,2.213,0,0,1-.3,2.1,3.012,3.012,0,0,1-1.16.942Zm-2.883-.771a3.463,3.463,0,0,0-.942.688,1.183,1.183,0,0,0-.326.816,1.2,1.2,0,0,0,.339.885,1.239,1.239,0,0,0,.917.342,1.865,1.865,0,0,0,.909-.21,4.04,4.04,0,0,0,.782-.562Zm-.115-2.389a4.527,4.527,0,0,0,.652.644l.039-.025a3.761,3.761,0,0,0,.737-.555,1,1,0,0,0,.276-.734.765.765,0,0,0-.276-.588,1.087,1.087,0,0,0-1.365-.012.731.731,0,0,0-.269.575,1.108,1.108,0,0,0,.206.695" transform="translate(-36.092 -2.088)" fill="#647178"/>
    <path id="패스_25" data-name="패스 25" d="M136.684,15.186a.983.983,0,0,1-.454.569,2.337,2.337,0,0,1-1.653,0,.978.978,0,0,1-.455-.569l-2.589-7.179a1.751,1.751,0,0,1-.127-.606.8.8,0,0,1,.308-.7,1.257,1.257,0,0,1,.755-.221.979.979,0,0,1,.673.221,1.467,1.467,0,0,1,.39.689l1.9,6.194h.026l1.973-6.194q.282-.91.987-.91a1.257,1.257,0,0,1,.756.221.8.8,0,0,1,.308.7,1.757,1.757,0,0,1-.128.606Z" transform="translate(-40.385 -2.053)" fill="#647178"/>
    <path id="패스_26" data-name="패스 26" d="M144.63,7.514a1.011,1.011,0,0,1,.287-.751,1.173,1.173,0,0,1,1.532,0,1.021,1.021,0,0,1,.281.751v7.354a1.022,1.022,0,0,1-.281.753,1.175,1.175,0,0,1-1.532,0,1.012,1.012,0,0,1-.287-.753Z" transform="translate(-44.449 -2.053)" fill="#647178"/>
    <path id="패스_27" data-name="패스 27" d="M150.55,7.932A1.2,1.2,0,0,1,150.864,7a1.345,1.345,0,0,1,.916-.278h4.934a1.417,1.417,0,0,1,.787.183.724.724,0,0,1,.276.651.726.726,0,0,1-.276.644,1.38,1.38,0,0,1-.787.189h-4.063v1.972h3.562a1.325,1.325,0,0,1,.725.171.692.692,0,0,1,.263.626.692.692,0,0,1-.263.619,1.283,1.283,0,0,1-.725.177h-3.562v2.2h4.165a1.435,1.435,0,0,1,.788.183.727.727,0,0,1,.276.652.725.725,0,0,1-.276.644,1.387,1.387,0,0,1-.788.189H151.78a1.345,1.345,0,0,1-.916-.277,1.2,1.2,0,0,1-.314-.935Z" transform="translate(-46.268 -2.129)" fill="#647178"/>
    <path id="패스_28" data-name="패스 28" d="M171.634,14.92a1.4,1.4,0,0,1-.416.764,1.355,1.355,0,0,1-.852.221,1.245,1.245,0,0,1-.845-.24,1.549,1.549,0,0,1-.411-.784l-1.37-5.548h-.026l-1.372,5.548a1.452,1.452,0,0,1-.4.784,1.272,1.272,0,0,1-.852.24,1.356,1.356,0,0,1-.845-.221,1.381,1.381,0,0,1-.423-.764l-1.807-6.913a2.431,2.431,0,0,1-.1-.594.834.834,0,0,1,.308-.689,1.1,1.1,0,0,1,.7-.246.936.936,0,0,1,.987.846l1.242,6.041h.026l1.435-6.116a1,1,0,0,1,.321-.588,1.279,1.279,0,0,1,.782-.183,1.163,1.163,0,0,1,.839.24,1.533,1.533,0,0,1,.353.746l1.4,5.9h.026l1.255-6.041a.916.916,0,0,1,.948-.846,1.1,1.1,0,0,1,.7.246.832.832,0,0,1,.308.689,2.455,2.455,0,0,1-.1.594Z" transform="translate(-49.759 -2.053)" fill="#647178"/>
    <path id="패스_29" data-name="패스 29" d="M108.971,30.8a4.4,4.4,0,0,1,.864-1.523,4.018,4.018,0,0,1,1.428-1.03,4.771,4.771,0,0,1,1.929-.373,4.876,4.876,0,0,1,1.557.234,4.041,4.041,0,0,1,1.184.607,2.91,2.91,0,0,1,.738.784,1.471,1.471,0,0,1,.249.751.832.832,0,0,1-.948.935.886.886,0,0,1-.571-.17,2.645,2.645,0,0,1-.454-.512,2.88,2.88,0,0,0-.691-.714,1.883,1.883,0,0,0-1.064-.246,2.142,2.142,0,0,0-1.717.834,3.437,3.437,0,0,0-.693,2.262,4.834,4.834,0,0,0,.142,1.2,3.057,3.057,0,0,0,.435.985,2.021,2.021,0,0,0,.776.67,2.5,2.5,0,0,0,1.133.241,1.543,1.543,0,0,0,.961-.266,3.57,3.57,0,0,0,.705-.771,3.288,3.288,0,0,1,.467-.537.732.732,0,0,1,.494-.171,1.238,1.238,0,0,1,.718.214.676.676,0,0,1,.306.583,1.856,1.856,0,0,1-.281.954,2.988,2.988,0,0,1-.788.853,3.963,3.963,0,0,1-1.172.593,5.138,5.138,0,0,1-4.8-1,4.856,4.856,0,0,1-1.2-3.545,5.754,5.754,0,0,1,.289-1.839" transform="translate(-33.401 -8.832)" fill="#647178"/>
    <path id="패스_30" data-name="패스 30" d="M122.18,30.67a4.236,4.236,0,0,1,.9-1.479,3.987,3.987,0,0,1,1.467-.973,5.946,5.946,0,0,1,3.972,0,3.987,3.987,0,0,1,1.467.973,4.236,4.236,0,0,1,.9,1.479,5.388,5.388,0,0,1,.308,1.858,5.94,5.94,0,0,1-.287,1.864,4.437,4.437,0,0,1-.878,1.555,4.155,4.155,0,0,1-1.473,1.067,4.938,4.938,0,0,1-2.024.394,5.494,5.494,0,0,1-2.1-.368,3.807,3.807,0,0,1-1.459-1.023,4.161,4.161,0,0,1-.84-1.543,6.654,6.654,0,0,1-.269-1.946,5.388,5.388,0,0,1,.308-1.858M124.1,33.8a2.916,2.916,0,0,0,.423,1.011,2.012,2.012,0,0,0,.794.682,2.731,2.731,0,0,0,1.218.247,2.617,2.617,0,0,0,1.184-.247,2.1,2.1,0,0,0,.8-.689,2.936,2.936,0,0,0,.442-1.017,5.548,5.548,0,0,0,.134-1.258,3.361,3.361,0,0,0-.654-2.167,2.642,2.642,0,0,0-3.817,0,3.357,3.357,0,0,0-.654,2.167,5.86,5.86,0,0,0,.128,1.27" transform="translate(-37.455 -8.832)" fill="#647178"/>
    <path id="패스_31" data-name="패스 31" d="M137.5,28.974a.91.91,0,0,1,.32-.8,1.385,1.385,0,0,1,.821-.228h.614a1.154,1.154,0,0,1,.749.215,1.534,1.534,0,0,1,.429.732l1.832,5.839h.026L144.1,28.9a1.534,1.534,0,0,1,.43-.732,1.151,1.151,0,0,1,.749-.215h.589a1.383,1.383,0,0,1,.82.228.912.912,0,0,1,.32.8v7.393a1.125,1.125,0,0,1-.23.721,1,1,0,0,1-1.41,0,1.122,1.122,0,0,1-.23-.721V30.732h-.026l-1.96,6.04a.84.84,0,0,1-.9.607.851.851,0,0,1-.9-.607l-1.961-6.04h-.026v5.636a1.126,1.126,0,0,1-.231.721,1,1,0,0,1-1.41,0,1.122,1.122,0,0,1-.231-.721Z" transform="translate(-42.259 -8.856)" fill="#647178"/>
    <path id="패스_32" data-name="패스 32" d="M153.931,28.974a.91.91,0,0,1,.32-.8,1.385,1.385,0,0,1,.821-.228h.614a1.154,1.154,0,0,1,.749.215,1.534,1.534,0,0,1,.429.732l1.832,5.839h.026l1.806-5.839a1.534,1.534,0,0,1,.43-.732,1.151,1.151,0,0,1,.749-.215h.589a1.383,1.383,0,0,1,.82.228.912.912,0,0,1,.32.8v7.393a1.125,1.125,0,0,1-.23.721,1,1,0,0,1-1.41,0,1.122,1.122,0,0,1-.23-.721V30.732h-.026l-1.96,6.04a.84.84,0,0,1-.9.607.851.851,0,0,1-.9-.607l-1.961-6.04H155.8v5.636a1.126,1.126,0,0,1-.231.721,1,1,0,0,1-1.41,0,1.122,1.122,0,0,1-.231-.721Z" transform="translate(-47.307 -8.856)" fill="#647178"/>
    <path id="패스_33" data-name="패스 33" d="M170.412,28.987a1.011,1.011,0,0,1,.287-.751,1.173,1.173,0,0,1,1.532,0,1.021,1.021,0,0,1,.281.751v4.979a1.732,1.732,0,0,0,.493,1.353,2.49,2.49,0,0,0,2.832,0,1.732,1.732,0,0,0,.493-1.353V28.987a1.009,1.009,0,0,1,.288-.751,1.172,1.172,0,0,1,1.532,0,1.021,1.021,0,0,1,.282.751V33.8a3.387,3.387,0,0,1-1.058,2.724,5.275,5.275,0,0,1-5.906,0,3.387,3.387,0,0,1-1.058-2.724Z" transform="translate(-52.372 -8.856)" fill="#647178"/>
    <path id="패스_34" data-name="패스 34" d="M184.749,29.164a1.185,1.185,0,0,1,.319-.928,1.477,1.477,0,0,1,1-.285,1.143,1.143,0,0,1,1.051.544l3.677,5.851h.027v-5.4a1.012,1.012,0,0,1,2.023,0V36.09a1.4,1.4,0,0,1-.294.961,1.218,1.218,0,0,1-.948.328,1.693,1.693,0,0,1-.718-.113,1.164,1.164,0,0,1-.436-.442L186.8,31.136h-.024v5.245a1.013,1.013,0,0,1-2.025,0Z" transform="translate(-56.778 -8.856)" fill="#647178"/>
    <path id="패스_35" data-name="패스 35" d="M199.2,28.987a1.011,1.011,0,0,1,.287-.751,1.172,1.172,0,0,1,1.532,0,1.02,1.02,0,0,1,.281.751v7.354a1.022,1.022,0,0,1-.281.753,1.175,1.175,0,0,1-1.532,0,1.012,1.012,0,0,1-.287-.753Z" transform="translate(-61.218 -8.856)" fill="#647178"/>
    <path id="패스_36" data-name="패스 36" d="M204.9,30.8a4.4,4.4,0,0,1,.864-1.523,4.018,4.018,0,0,1,1.428-1.03,4.77,4.77,0,0,1,1.929-.373,4.876,4.876,0,0,1,1.557.234,4.041,4.041,0,0,1,1.184.607,2.911,2.911,0,0,1,.738.784,1.471,1.471,0,0,1,.249.751.832.832,0,0,1-.948.935.886.886,0,0,1-.571-.17,2.644,2.644,0,0,1-.454-.512,2.88,2.88,0,0,0-.691-.714,1.883,1.883,0,0,0-1.064-.246,2.142,2.142,0,0,0-1.717.834,3.436,3.436,0,0,0-.693,2.262,4.835,4.835,0,0,0,.142,1.2,3.058,3.058,0,0,0,.435.985,2.021,2.021,0,0,0,.776.67,2.5,2.5,0,0,0,1.133.241,1.544,1.544,0,0,0,.961-.266,3.57,3.57,0,0,0,.705-.771,3.288,3.288,0,0,1,.467-.537.732.732,0,0,1,.494-.171,1.238,1.238,0,0,1,.718.214.676.676,0,0,1,.306.583,1.856,1.856,0,0,1-.281.954,2.988,2.988,0,0,1-.788.853,3.964,3.964,0,0,1-1.172.593,5.138,5.138,0,0,1-4.8-1,4.856,4.856,0,0,1-1.2-3.545A5.754,5.754,0,0,1,204.9,30.8" transform="translate(-62.884 -8.832)" fill="#647178"/>
    <path id="패스_37" data-name="패스 37" d="M220.08,28.584a.9.9,0,0,1,.378-.487,1.273,1.273,0,0,1,.647-.145h.5a1.387,1.387,0,0,1,.691.158,1.041,1.041,0,0,1,.436.6l2.537,6.964q.077.214.141.436a1.375,1.375,0,0,1,.064.36.844.844,0,0,1-.289.644.994.994,0,0,1-.7.265.9.9,0,0,1-.948-.568L223,35.293h-3.382l-.551,1.518a.871.871,0,0,1-.936.568,1,1,0,0,1-.7-.247.854.854,0,0,1-.269-.663,1.341,1.341,0,0,1,.064-.36q.064-.221.141-.436Zm1.269,1.617h-.026l-1.243,3.653h2.461Z" transform="translate(-66.739 -8.856)" fill="#647178"/>
    <path id="패스_38" data-name="패스 38" d="M231.259,29.936h-1.987a1.283,1.283,0,0,1-.782-.227.829.829,0,0,1,0-1.289,1.283,1.283,0,0,1,.782-.227h6.073a1.283,1.283,0,0,1,.782.227.829.829,0,0,1,0,1.289,1.283,1.283,0,0,1-.782.227H233.36v6.483a1.018,1.018,0,0,1-.283.753,1.175,1.175,0,0,1-1.531,0,1.013,1.013,0,0,1-.287-.753Z" transform="translate(-70.127 -8.932)" fill="#647178"/>
    <path id="패스_39" data-name="패스 39" d="M241.724,28.987a1.008,1.008,0,0,1,.287-.751,1.173,1.173,0,0,1,1.532,0,1.021,1.021,0,0,1,.281.751v7.354a1.022,1.022,0,0,1-.281.753,1.175,1.175,0,0,1-1.532,0,1.009,1.009,0,0,1-.287-.753Z" transform="translate(-74.288 -8.856)" fill="#647178"/>
    <path id="패스_40" data-name="패스 40" d="M247.286,30.67a4.248,4.248,0,0,1,.9-1.479,3.987,3.987,0,0,1,1.467-.973,5.946,5.946,0,0,1,3.972,0,3.987,3.987,0,0,1,1.467.973,4.236,4.236,0,0,1,.9,1.479,5.388,5.388,0,0,1,.308,1.858,5.939,5.939,0,0,1-.287,1.864,4.436,4.436,0,0,1-.878,1.555,4.155,4.155,0,0,1-1.473,1.067,4.938,4.938,0,0,1-2.024.394,5.493,5.493,0,0,1-2.1-.368,3.808,3.808,0,0,1-1.459-1.023,4.161,4.161,0,0,1-.839-1.543,6.653,6.653,0,0,1-.269-1.946,5.405,5.405,0,0,1,.308-1.858m1.922,3.128a2.916,2.916,0,0,0,.423,1.011,2.012,2.012,0,0,0,.795.682,2.73,2.73,0,0,0,1.218.247,2.617,2.617,0,0,0,1.184-.247,2.1,2.1,0,0,0,.8-.689,2.935,2.935,0,0,0,.442-1.017,5.548,5.548,0,0,0,.134-1.258,3.361,3.361,0,0,0-.654-2.167,2.642,2.642,0,0,0-3.817,0,3.357,3.357,0,0,0-.654,2.167,5.861,5.861,0,0,0,.128,1.27" transform="translate(-75.903 -8.832)" fill="#647178"/>
    <path id="패스_41" data-name="패스 41" d="M262.609,29.164a1.185,1.185,0,0,1,.32-.928,1.476,1.476,0,0,1,1-.285,1.142,1.142,0,0,1,1.05.544l3.677,5.851h.026v-5.4a1.012,1.012,0,0,1,2.024,0V36.09a1.392,1.392,0,0,1-.3.961,1.215,1.215,0,0,1-.948.328,1.693,1.693,0,0,1-.718-.113,1.159,1.159,0,0,1-.436-.442l-3.652-5.687h-.025v5.245a1.013,1.013,0,0,1-2.025,0Z" transform="translate(-80.707 -8.856)" fill="#647178"/>
    <path id="패스_42" data-name="패스 42" d="M44.982,27.77a6.747,6.747,0,1,1,6.84-6.747,6.8,6.8,0,0,1-6.84,6.747m0-11.622a4.876,4.876,0,1,0,4.943,4.875,4.915,4.915,0,0,0-4.943-4.875" transform="translate(-11.722 -4.524)" fill="#647178"/>
    <path id="패스_43" data-name="패스 43" d="M25.019,22.758a.924.924,0,0,0-.039-.956,9.6,9.6,0,0,1-1.59-5.3A9.814,9.814,0,0,1,33.26,6.765H55.8a.936.936,0,1,0,0-1.871H33.26A11.7,11.7,0,0,0,21.492,16.5a11.452,11.452,0,0,0,1.086,4.876H19.29a14.362,14.362,0,0,1-.862-4.876A14.748,14.748,0,0,1,33.26,1.871H51.427a.943.943,0,0,0,.949-.936A.942.942,0,0,0,51.427,0h-36.5a.943.943,0,0,0-.949.935.943.943,0,0,0,.949.936H25.536a16.791,16.791,0,0,0-4.154,3.022H10.57a.936.936,0,1,0,0,1.871h9.194A16.458,16.458,0,0,0,18,9.752H6.148a.936.936,0,1,0,0,1.871H17.277a16.2,16.2,0,0,0-.718,3.941H.948a.936.936,0,1,0,0,1.871H16.56a16.15,16.15,0,0,0,.718,3.94H6.148a.936.936,0,1,0,0,1.871H24.185a.951.951,0,0,0,.834-.489" transform="translate(0 0)" fill="#647178"/>
    <path id="패스_44" data-name="패스 44" d="M69.821,20.088H54.211a16.184,16.184,0,0,0-.718-3.941H64.618a.936.936,0,1,0,0-1.871H46.585a.95.95,0,0,0-.834.49.923.923,0,0,0,.039.956,9.6,9.6,0,0,1,1.59,5.3,9.814,9.814,0,0,1-9.87,9.735H14.779a.936.936,0,1,0,0,1.871H37.51A11.7,11.7,0,0,0,49.278,21.024a11.44,11.44,0,0,0-1.085-4.876h3.29a14.376,14.376,0,0,1,.861,4.876A14.748,14.748,0,0,1,37.51,35.652H19.173a.936.936,0,1,0,0,1.871h36.5a.936.936,0,1,0,0-1.871H45.234a16.8,16.8,0,0,0,4.189-3.058H60.6a.936.936,0,1,0,0-1.871H51.032a16.388,16.388,0,0,0,1.756-2.989h11.83a.936.936,0,1,0,0-1.871H53.5a16.179,16.179,0,0,0,.707-3.9h15.61a.936.936,0,1,0,0-1.871" transform="translate(-4.25 -4.523)" fill="#647178"/>
  </g>
</svg>
