<svg xmlns="http://www.w3.org/2000/svg" xmlns:xlink="http://www.w3.org/1999/xlink" width="342" height="59" viewBox="0 0 342 59">
  <defs>
    <clipPath id="clip-path">
      <rect id="사각형_2" data-name="사각형 2" width="342" height="59" transform="translate(0.284 0)" fill="#fff"/>
    </clipPath>
  </defs>
  <g id="그룹_3" data-name="그룹 3" transform="translate(-0.284 0)" clip-path="url(#clip-path)">
    <path id="패스_23" data-name="패스 23" d="M110.224,8.346a1.818,1.818,0,0,1,.518-1.355,2.113,2.113,0,0,1,2.762,0,1.84,1.84,0,0,1,.507,1.355V21.6a1.841,1.841,0,0,1-.507,1.357,2.117,2.117,0,0,1-2.762,0,1.819,1.819,0,0,1-.518-1.357Z" transform="translate(27.159 1.258)" fill="#b30046"/>
    <path id="패스_24" data-name="패스 24" d="M128.293,17.318c.092-.183.192-.372.3-.569a9.006,9.006,0,0,1,.6-1.071,1.51,1.51,0,0,1,1.2-.707,1.58,1.58,0,0,1,1.04.387,1.163,1.163,0,0,1,.462.912,2.041,2.041,0,0,1-.15.693,5.964,5.964,0,0,1-.393.832,7.511,7.511,0,0,1-.543.832,5.216,5.216,0,0,1-.622.693l1.385,1.64a1.375,1.375,0,0,1,.323.911,1.319,1.319,0,0,1-.473,1,1.8,1.8,0,0,1-1.26.432,1.017,1.017,0,0,1-.6-.16,3.272,3.272,0,0,1-.532-.478l-1.062-1.207a6.616,6.616,0,0,1-2.413,1.515,8.827,8.827,0,0,1-2.945.467,6.268,6.268,0,0,1-2.3-.385,4.6,4.6,0,0,1-1.619-1.038,4.283,4.283,0,0,1-.945-1.457,4.55,4.55,0,0,1-.312-1.653,4.644,4.644,0,0,1,.981-2.971,7.307,7.307,0,0,1,2.644-2.038,10.192,10.192,0,0,1-1.179-1.6,3.3,3.3,0,0,1-.414-1.662,3.62,3.62,0,0,1,1.34-2.974,5.054,5.054,0,0,1,3.28-1.081,6.164,6.164,0,0,1,2.227.363,4.1,4.1,0,0,1,1.491.947,3.648,3.648,0,0,1,.808,1.265,3.99,3.99,0,0,1-.543,3.791,5.429,5.429,0,0,1-2.09,1.7Zm-5.2-1.389a6.243,6.243,0,0,0-1.7,1.24,2.132,2.132,0,0,0-.588,1.47,2.171,2.171,0,0,0,.611,1.595,2.233,2.233,0,0,0,1.653.616,3.361,3.361,0,0,0,1.638-.379,7.281,7.281,0,0,0,1.41-1.012Zm-.207-4.306a8.16,8.16,0,0,0,1.176,1.161l.07-.046a6.778,6.778,0,0,0,1.328-1,1.8,1.8,0,0,0,.5-1.323,1.378,1.378,0,0,0-.5-1.059A1.959,1.959,0,0,0,123,9.335a1.318,1.318,0,0,0-.486,1.036,2,2,0,0,0,.371,1.252" transform="translate(28.951 1.283)" fill="#b30046"/>
    <path id="패스_25" data-name="패스 25" d="M140.92,22.173A1.771,1.771,0,0,1,140.1,23.2a4.212,4.212,0,0,1-2.979,0,1.763,1.763,0,0,1-.82-1.026L131.635,9.234a3.157,3.157,0,0,1-.229-1.092,1.448,1.448,0,0,1,.554-1.265,2.265,2.265,0,0,1,1.361-.4,1.764,1.764,0,0,1,1.214.4,2.645,2.645,0,0,1,.7,1.241l3.418,11.164h.047l3.556-11.164q.508-1.64,1.779-1.64a2.266,2.266,0,0,1,1.362.4,1.448,1.448,0,0,1,.554,1.265,3.167,3.167,0,0,1-.231,1.092Z" transform="translate(32.423 1.258)" fill="#b30046"/>
    <path id="패스_26" data-name="패스 26" d="M144.63,8.346a1.822,1.822,0,0,1,.518-1.355,2.113,2.113,0,0,1,2.762,0,1.84,1.84,0,0,1,.507,1.355V21.6a1.842,1.842,0,0,1-.507,1.357,2.117,2.117,0,0,1-2.762,0,1.824,1.824,0,0,1-.518-1.357Z" transform="translate(35.709 1.258)" fill="#b30046"/>
    <path id="패스_27" data-name="패스 27" d="M150.55,8.906a2.161,2.161,0,0,1,.566-1.686,2.424,2.424,0,0,1,1.652-.5h8.893a2.553,2.553,0,0,1,1.418.33,1.3,1.3,0,0,1,.5,1.174,1.308,1.308,0,0,1-.5,1.161,2.488,2.488,0,0,1-1.418.341h-7.324v3.554h6.421a2.389,2.389,0,0,1,1.306.308,1.247,1.247,0,0,1,.474,1.128,1.247,1.247,0,0,1-.474,1.116,2.313,2.313,0,0,1-1.306.319h-6.421v3.963h7.507a2.587,2.587,0,0,1,1.421.33,1.311,1.311,0,0,1,.5,1.176,1.307,1.307,0,0,1-.5,1.16,2.5,2.5,0,0,1-1.421.341h-9.077a2.424,2.424,0,0,1-1.652-.5,2.157,2.157,0,0,1-.566-1.686Z" transform="translate(37.18 1.314)" fill="#b30046"/>
    <path id="패스_28" data-name="패스 28" d="M179.438,21.694a2.53,2.53,0,0,1-.75,1.378,2.443,2.443,0,0,1-1.536.4,2.243,2.243,0,0,1-1.523-.432,2.793,2.793,0,0,1-.742-1.412l-2.47-10h-.046l-2.472,10a2.616,2.616,0,0,1-.728,1.412,2.293,2.293,0,0,1-1.536.432,2.444,2.444,0,0,1-1.523-.4,2.49,2.49,0,0,1-.762-1.378l-3.257-12.46a4.381,4.381,0,0,1-.185-1.071,1.5,1.5,0,0,1,.554-1.241,1.974,1.974,0,0,1,1.27-.443A1.686,1.686,0,0,1,165.512,8l2.239,10.888h.048l2.586-11.025a1.809,1.809,0,0,1,.578-1.059,2.306,2.306,0,0,1,1.41-.33,2.1,2.1,0,0,1,1.512.432,2.763,2.763,0,0,1,.635,1.345l2.517,10.637h.047L179.346,8a1.65,1.65,0,0,1,1.709-1.526,1.974,1.974,0,0,1,1.27.443,1.5,1.5,0,0,1,.554,1.241,4.426,4.426,0,0,1-.184,1.071Z" transform="translate(40.003 1.258)" fill="#b30046"/>
    <path id="패스_29" data-name="패스 29" d="M109.2,33.151a7.924,7.924,0,0,1,1.558-2.746,7.242,7.242,0,0,1,2.574-1.856,8.6,8.6,0,0,1,3.477-.672,8.789,8.789,0,0,1,2.807.422,7.283,7.283,0,0,1,2.135,1.093,5.246,5.246,0,0,1,1.33,1.412,2.652,2.652,0,0,1,.448,1.355,1.5,1.5,0,0,1-1.708,1.686,1.6,1.6,0,0,1-1.029-.307,4.766,4.766,0,0,1-.819-.924,5.191,5.191,0,0,0-1.246-1.287,3.4,3.4,0,0,0-1.918-.443,3.861,3.861,0,0,0-3.1,1.5,6.194,6.194,0,0,0-1.248,4.077,8.714,8.714,0,0,0,.256,2.164,5.511,5.511,0,0,0,.784,1.776,3.643,3.643,0,0,0,1.4,1.208,4.51,4.51,0,0,0,2.043.435,2.781,2.781,0,0,0,1.733-.479,6.435,6.435,0,0,0,1.271-1.39,5.925,5.925,0,0,1,.842-.968,1.32,1.32,0,0,1,.89-.308,2.232,2.232,0,0,1,1.295.385,1.219,1.219,0,0,1,.552,1.05,3.346,3.346,0,0,1-.507,1.72A5.385,5.385,0,0,1,121.6,43.6a7.143,7.143,0,0,1-2.112,1.069,9.261,9.261,0,0,1-8.65-1.809q-2.159-2.2-2.16-6.39a10.372,10.372,0,0,1,.521-3.315" transform="translate(26.775 6.209)" fill="#fff"/>
    <path id="패스_30" data-name="패스 30" d="M122.428,32.912a7.636,7.636,0,0,1,1.627-2.666,7.187,7.187,0,0,1,2.644-1.753,10.717,10.717,0,0,1,7.16,0,7.187,7.187,0,0,1,2.644,1.753,7.636,7.636,0,0,1,1.627,2.666,9.712,9.712,0,0,1,.554,3.348,10.707,10.707,0,0,1-.518,3.359,8,8,0,0,1-1.583,2.8,7.489,7.489,0,0,1-2.656,1.923,8.9,8.9,0,0,1-3.648.709,9.9,9.9,0,0,1-3.778-.662,6.862,6.862,0,0,1-2.631-1.845,7.5,7.5,0,0,1-1.513-2.78,11.993,11.993,0,0,1-.486-3.507,9.712,9.712,0,0,1,.556-3.348m3.463,5.637a5.255,5.255,0,0,0,.762,1.822,3.627,3.627,0,0,0,1.432,1.23,4.922,4.922,0,0,0,2.195.446,4.718,4.718,0,0,0,2.135-.446,3.782,3.782,0,0,0,1.445-1.241,5.292,5.292,0,0,0,.8-1.834,10,10,0,0,0,.242-2.267,6.059,6.059,0,0,0-1.179-3.906,4.763,4.763,0,0,0-6.881,0,6.051,6.051,0,0,0-1.179,3.906,10.562,10.562,0,0,0,.231,2.289" transform="translate(30.053 6.209)" fill="#fff"/>
    <path id="패스_31" data-name="패스 31" d="M137.5,29.8a1.641,1.641,0,0,1,.577-1.435,2.5,2.5,0,0,1,1.479-.41h1.107a2.08,2.08,0,0,1,1.351.388,2.766,2.766,0,0,1,.774,1.32l3.3,10.525h.047L149.4,29.659a2.765,2.765,0,0,1,.775-1.32,2.075,2.075,0,0,1,1.351-.388h1.063a2.493,2.493,0,0,1,1.478.41,1.644,1.644,0,0,1,.577,1.435V43.122a2.029,2.029,0,0,1-.414,1.3,1.8,1.8,0,0,1-2.542,0,2.021,2.021,0,0,1-.415-1.3V32.963h-.047l-3.533,10.887a1.513,1.513,0,0,1-1.617,1.095,1.534,1.534,0,0,1-1.616-1.095l-3.535-10.887h-.046V43.122a2.03,2.03,0,0,1-.416,1.3,1.8,1.8,0,0,1-2.541,0,2.022,2.022,0,0,1-.416-1.3Z" transform="translate(33.938 6.226)" fill="#fff"/>
    <path id="패스_32" data-name="패스 32" d="M153.931,29.8a1.641,1.641,0,0,1,.577-1.435,2.5,2.5,0,0,1,1.48-.41h1.107a2.08,2.08,0,0,1,1.351.388,2.766,2.766,0,0,1,.774,1.32l3.3,10.525h.047l3.255-10.525a2.766,2.766,0,0,1,.775-1.32,2.075,2.075,0,0,1,1.351-.388h1.062a2.493,2.493,0,0,1,1.478.41,1.644,1.644,0,0,1,.577,1.435V43.122a2.028,2.028,0,0,1-.414,1.3,1.8,1.8,0,0,1-2.542,0,2.021,2.021,0,0,1-.415-1.3V32.963h-.047l-3.533,10.887a1.513,1.513,0,0,1-1.617,1.095,1.534,1.534,0,0,1-1.616-1.095l-3.534-10.887H157.3V43.122a2.029,2.029,0,0,1-.416,1.3,1.8,1.8,0,0,1-2.541,0,2.022,2.022,0,0,1-.416-1.3Z" transform="translate(38.02 6.226)" fill="#fff"/>
    <path id="패스_33" data-name="패스 33" d="M170.412,29.819a1.822,1.822,0,0,1,.518-1.355,2.113,2.113,0,0,1,2.762,0,1.839,1.839,0,0,1,.507,1.355v8.974a3.123,3.123,0,0,0,.889,2.439,4.487,4.487,0,0,0,5.105,0,3.123,3.123,0,0,0,.889-2.439V29.819a1.818,1.818,0,0,1,.519-1.355,2.112,2.112,0,0,1,2.761,0,1.84,1.84,0,0,1,.508,1.355V38.5a6.1,6.1,0,0,1-1.906,4.911,9.509,9.509,0,0,1-10.645,0,6.1,6.1,0,0,1-1.906-4.911Z" transform="translate(42.116 6.226)" fill="#fff"/>
    <path id="패스_34" data-name="패스 34" d="M184.749,30.138a2.136,2.136,0,0,1,.576-1.673,2.663,2.663,0,0,1,1.8-.513,2.061,2.061,0,0,1,1.894.98l6.627,10.546h.049V29.75a1.824,1.824,0,0,1,3.647,0V42.622a2.516,2.516,0,0,1-.531,1.731,2.195,2.195,0,0,1-1.709.591,3.052,3.052,0,0,1-1.293-.2,2.1,2.1,0,0,1-.785-.8l-6.582-10.251H188.4v9.455a1.826,1.826,0,0,1-3.651,0Z" transform="translate(45.679 6.226)" fill="#fff"/>
    <path id="패스_35" data-name="패스 35" d="M199.2,29.819a1.822,1.822,0,0,1,.518-1.355,2.113,2.113,0,0,1,2.762,0,1.839,1.839,0,0,1,.507,1.355V43.075a1.841,1.841,0,0,1-.507,1.357,2.117,2.117,0,0,1-2.762,0,1.824,1.824,0,0,1-.518-1.357Z" transform="translate(49.269 6.226)" fill="#fff"/>
    <path id="패스_36" data-name="패스 36" d="M205.137,33.151a7.923,7.923,0,0,1,1.558-2.746,7.242,7.242,0,0,1,2.574-1.856,8.6,8.6,0,0,1,3.477-.672,8.789,8.789,0,0,1,2.807.422,7.284,7.284,0,0,1,2.135,1.093,5.248,5.248,0,0,1,1.33,1.412,2.652,2.652,0,0,1,.448,1.355,1.5,1.5,0,0,1-1.708,1.686,1.6,1.6,0,0,1-1.029-.307,4.764,4.764,0,0,1-.819-.924,5.191,5.191,0,0,0-1.246-1.287,3.4,3.4,0,0,0-1.918-.443,3.861,3.861,0,0,0-3.1,1.5,6.194,6.194,0,0,0-1.248,4.077,8.715,8.715,0,0,0,.256,2.164,5.512,5.512,0,0,0,.784,1.776,3.643,3.643,0,0,0,1.4,1.208,4.51,4.51,0,0,0,2.043.435,2.784,2.784,0,0,0,1.733-.479,6.435,6.435,0,0,0,1.271-1.39,5.923,5.923,0,0,1,.842-.968,1.32,1.32,0,0,1,.89-.308,2.232,2.232,0,0,1,1.295.385,1.219,1.219,0,0,1,.552,1.05,3.346,3.346,0,0,1-.507,1.72,5.386,5.386,0,0,1-1.421,1.537,7.144,7.144,0,0,1-2.112,1.069,9.261,9.261,0,0,1-8.65-1.809q-2.159-2.2-2.16-6.39a10.371,10.371,0,0,1,.521-3.315" transform="translate(50.616 6.209)" fill="#fff"/>
    <path id="패스_37" data-name="패스 37" d="M222.424,29.091a1.619,1.619,0,0,1,.682-.878,2.294,2.294,0,0,1,1.166-.261h.9a2.5,2.5,0,0,1,1.246.284,1.877,1.877,0,0,1,.787,1.081l4.572,12.553q.139.386.255.786a2.478,2.478,0,0,1,.116.649,1.521,1.521,0,0,1-.521,1.161,1.792,1.792,0,0,1-1.26.478,1.629,1.629,0,0,1-1.708-1.023l-.97-2.736h-6.1l-.993,2.736a1.569,1.569,0,0,1-1.688,1.023,1.8,1.8,0,0,1-1.269-.445,1.539,1.539,0,0,1-.486-1.194,2.418,2.418,0,0,1,.115-.649q.116-.4.254-.786Zm2.287,2.915h-.047l-2.24,6.584h4.436Z" transform="translate(53.733 6.227)" fill="#fff"/>
    <path id="패스_38" data-name="패스 38" d="M233.728,31.336h-3.581a2.312,2.312,0,0,1-1.41-.41,1.495,1.495,0,0,1,0-2.324,2.312,2.312,0,0,1,1.41-.41h10.947a2.312,2.312,0,0,1,1.41.41,1.495,1.495,0,0,1,0,2.324,2.312,2.312,0,0,1-1.41.41h-3.579V43.02A1.835,1.835,0,0,1,237,44.377a2.118,2.118,0,0,1-2.759,0,1.826,1.826,0,0,1-.518-1.357Z" transform="translate(56.473 6.282)" fill="#fff"/>
    <path id="패스_39" data-name="패스 39" d="M241.724,29.819a1.817,1.817,0,0,1,.518-1.355,2.113,2.113,0,0,1,2.762,0,1.839,1.839,0,0,1,.507,1.355V43.075A1.841,1.841,0,0,1,245,44.432a2.117,2.117,0,0,1-2.762,0,1.819,1.819,0,0,1-.518-1.357Z" transform="translate(59.838 6.226)" fill="#fff"/>
    <path id="패스_40" data-name="패스 40" d="M247.532,32.912a7.658,7.658,0,0,1,1.628-2.666,7.188,7.188,0,0,1,2.644-1.753,10.717,10.717,0,0,1,7.16,0,7.187,7.187,0,0,1,2.644,1.753,7.635,7.635,0,0,1,1.627,2.666,9.713,9.713,0,0,1,.554,3.348,10.7,10.7,0,0,1-.518,3.359,8,8,0,0,1-1.583,2.8,7.489,7.489,0,0,1-2.656,1.923,8.9,8.9,0,0,1-3.648.709,9.9,9.9,0,0,1-3.778-.662,6.863,6.863,0,0,1-2.631-1.845,7.5,7.5,0,0,1-1.513-2.78,11.993,11.993,0,0,1-.486-3.507,9.742,9.742,0,0,1,.554-3.348M251,38.549a5.257,5.257,0,0,0,.762,1.822,3.628,3.628,0,0,0,1.432,1.23,4.922,4.922,0,0,0,2.195.446,4.717,4.717,0,0,0,2.135-.446,3.781,3.781,0,0,0,1.445-1.241,5.291,5.291,0,0,0,.8-1.834A10,10,0,0,0,260,36.26a6.059,6.059,0,0,0-1.179-3.906,4.763,4.763,0,0,0-6.881,0,6.052,6.052,0,0,0-1.179,3.906A10.563,10.563,0,0,0,251,38.549" transform="translate(61.143 6.209)" fill="#fff"/>
    <path id="패스_41" data-name="패스 41" d="M262.609,30.138a2.136,2.136,0,0,1,.577-1.673,2.661,2.661,0,0,1,1.8-.513,2.058,2.058,0,0,1,1.893.98l6.628,10.546h.047V29.75a1.824,1.824,0,0,1,3.648,0V42.622a2.51,2.51,0,0,1-.532,1.731,2.19,2.19,0,0,1-1.708.591,3.051,3.051,0,0,1-1.294-.2,2.089,2.089,0,0,1-.785-.8L266.3,33.692h-.045v9.455a1.825,1.825,0,0,1-3.651,0Z" transform="translate(65.028 6.226)" fill="#fff"/>
    <path id="패스_42" data-name="패스 42" d="M50.471,38.6A12.162,12.162,0,1,1,62.8,26.437,12.26,12.26,0,0,1,50.471,38.6m0-20.948a8.788,8.788,0,1,0,8.909,8.787,8.859,8.859,0,0,0-8.909-8.787" transform="translate(9.246 3.062)" fill="#b30046"/>
    <path id="패스_43" data-name="패스 43" d="M45.095,41.02a1.665,1.665,0,0,0-.07-1.724,17.306,17.306,0,0,1-2.867-9.556A17.69,17.69,0,0,1,59.95,12.193h40.626a1.687,1.687,0,1,0,0-3.373H59.95A21.09,21.09,0,0,0,38.739,29.74,20.642,20.642,0,0,0,40.7,38.529H34.768a25.887,25.887,0,0,1-1.553-8.788A26.583,26.583,0,0,1,59.95,3.373H92.694A1.7,1.7,0,0,0,94.4,1.686,1.7,1.7,0,0,0,92.694,0H26.9a1.7,1.7,0,0,0-1.71,1.686A1.7,1.7,0,0,0,26.9,3.373H46.028A30.266,30.266,0,0,0,38.54,8.82H19.052a1.687,1.687,0,1,0,0,3.373H35.624a29.665,29.665,0,0,0-3.181,5.385H11.082a1.687,1.687,0,1,0,0,3.373H31.14a29.2,29.2,0,0,0-1.293,7.1H1.709a1.687,1.687,0,1,0,0,3.373H29.848a29.111,29.111,0,0,0,1.293,7.1H11.082a1.687,1.687,0,1,0,0,3.373h32.51a1.714,1.714,0,0,0,1.5-.882" transform="translate(-0.233 -0.241)" fill="#fff"/>
    <path id="패스_44" data-name="패스 44" d="M114.752,24.751H86.616a29.171,29.171,0,0,0-1.295-7.1h20.052a1.687,1.687,0,1,0,0-3.373H72.87a1.713,1.713,0,0,0-1.5.883,1.663,1.663,0,0,0,.07,1.723A17.3,17.3,0,0,1,74.3,26.438a17.689,17.689,0,0,1-17.79,17.546H15.54a1.687,1.687,0,1,0,0,3.373H56.513a21.09,21.09,0,0,0,21.21-20.919,20.619,20.619,0,0,0-1.956-8.79H81.7a25.913,25.913,0,0,1,1.552,8.79A26.582,26.582,0,0,1,56.513,52.8H23.46a1.687,1.687,0,1,0,0,3.373h65.8a1.687,1.687,0,1,0,0-3.373H70.435a30.286,30.286,0,0,0,7.55-5.512H98.127a1.687,1.687,0,1,0,0-3.373H80.885a29.538,29.538,0,0,0,3.165-5.387h21.323a1.687,1.687,0,1,0,0-3.373H85.341a29.163,29.163,0,0,0,1.275-7.036h28.136a1.687,1.687,0,1,0,0-3.373" transform="translate(3.204 3.062)" fill="#fff"/>
  </g>
</svg>
