<?xml version="1.0" encoding="utf-8"?>
<!-- Generator: Adobe Illustrator 27.2.0, SVG Export Plug-In . SVG Version: 6.00 Build 0)  -->
<svg version="1.1" id="레이어_1" xmlns="http://www.w3.org/2000/svg" xmlns:xlink="http://www.w3.org/1999/xlink" x="0px"
	 y="0px" viewBox="0 0 74 64" style="enable-background:new 0 0 74 64;" xml:space="preserve">
<style type="text/css">
	.st0{fill:#FF2174;}
	.st1{enable-background:new    ;}
</style>
<g id="그룹_6318" transform="translate(-1455 -1405)">
	<path id="합치기_2" class="st0" d="M1458.8,1443v-6.2h-3.8l6-6.8l6,6.8h-3.8v6.2H1458.8z"/>
	<path id="합치기_3" class="st0" d="M1516.8,1469v-6.2h-3.8l6-6.8l6,6.8h-3.8v6.2H1516.8z"/>
	<g class="st1">
		<path class="st0" d="M1477.9,1420.2c3-3,4.7-4.8,4.7-6.4c0-1.1-0.6-1.9-1.9-1.9c-0.8,0-1.6,0.5-2.1,1.2l-0.7-0.7
			c0.8-0.9,1.7-1.5,3-1.5c1.8,0,3,1.2,3,2.9c0,1.9-1.7,3.7-4.1,6.2c0.5,0,1.1-0.1,1.7-0.1h2.9v1.1h-6.5V1420.2z"/>
		<path class="st0" d="M1485,1418.5c0-1.3,1-2.2,1.9-2.7v-0.1c-0.7-0.5-1.4-1.2-1.4-2.3c0-1.5,1.2-2.5,2.8-2.5
			c1.8,0,2.8,1.1,2.8,2.6c0,1.1-0.8,1.9-1.4,2.4v0.1c0.9,0.5,1.7,1.2,1.7,2.6c0,1.5-1.3,2.7-3.2,2.7
			C1486.4,1421.2,1485,1420,1485,1418.5z M1490.3,1418.5c0-1.3-1.3-1.8-2.7-2.3c-0.8,0.5-1.4,1.3-1.4,2.2c0,1.1,0.9,1.9,2.1,1.9
			C1489.5,1420.2,1490.3,1419.5,1490.3,1418.5z M1490,1413.5c0-1-0.6-1.8-1.7-1.8c-1,0-1.6,0.6-1.6,1.6c0,1.2,1.1,1.7,2.3,2.2
			C1489.7,1414.9,1490,1414.3,1490,1413.5z"/>
		<path class="st0" d="M1492.2,1422.9c0.9-0.4,1.4-1.1,1.4-1.9c-0.1,0-0.1,0-0.2,0c-0.5,0-0.9-0.3-0.9-0.9c0-0.5,0.4-0.9,1-0.9
			c0.7,0,1.1,0.6,1.1,1.5c0,1.3-0.8,2.4-2,2.9L1492.2,1422.9z"/>
		<path class="st0" d="M1495.9,1419.9h2.3v-7.4h-1.8v-0.8c0.9-0.2,1.6-0.4,2.1-0.7h1v8.9h2.1v1.1h-5.6V1419.9z"/>
		<path class="st0" d="M1502.1,1419.8l0.6-0.8c0.6,0.6,1.3,1.1,2.5,1.1c1.2,0,2.2-0.9,2.2-2.3s-0.8-2.2-2.1-2.2
			c-0.7,0-1.1,0.2-1.7,0.6l-0.7-0.4l0.3-4.8h5v1.1h-3.9l-0.3,3c0.5-0.3,0.9-0.4,1.5-0.4c1.7,0,3.1,1,3.1,3.1s-1.6,3.4-3.4,3.4
			C1503.8,1421.2,1502.8,1420.5,1502.1,1419.8z"/>
		<path class="st0" d="M1510,1419.9h2.3v-7.4h-1.8v-0.8c0.9-0.2,1.6-0.4,2.1-0.7h1v8.9h2.1v1.1h-5.6V1419.9z"/>
		<path class="st0" d="M1522,1411.1c0,3.2-1.1,6.2-4.7,8.2l-0.7-0.8c2.9-1.6,4.1-3.9,4.2-6.5h-3.8v-0.9H1522z M1527.2,1409.5v12.6
			h-1.1v-6.6h-1.7v5.9h-1.1v-11.6h1.1v4.7h1.7v-5.1H1527.2z"/>
	</g>
</g>
</svg>
