<svg xmlns="http://www.w3.org/2000/svg" xmlns:xlink="http://www.w3.org/1999/xlink" width="100.5" height="100" viewBox="0 0 100.5 100">
  <defs>
    <linearGradient id="linear-gradient" x1="0.5" x2="0.5" y2="1" gradientUnits="objectBoundingBox">
      <stop offset="0" stop-color="#ff2174"/>
      <stop offset="1" stop-color="#9100b3"/>
    </linearGradient>
  </defs>
  <g id="main03_icon1" transform="translate(-224.5 -224)">
    <rect id="사각형_1201" data-name="사각형 1201" width="100" height="100" transform="translate(225 224)" fill="none"/>
    <g id="그룹_2975" data-name="그룹 2975" transform="translate(-13.114 23.039)">
      <path id="패스_13180" data-name="패스 13180" d="M85.764,40.272a40.406,40.406,0,0,0-1.182-9.8c-5-20.261-24.345-32.915-43.218-28.259C27.21,5.706,17.343,17.942,15.406,32.389a39.67,39.67,0,0,0-.159,9.127c.013.122.028.244.038.368q.173,1.606.479,3.224c.14.741.293,1.482.477,2.224.274,1.108.6,2.186.955,3.247.285.848.586,1.685.921,2.5a40.159,40.159,0,0,0,2.622,5.247c.3.506.634.987.954,1.476a38.781,38.781,0,0,0,6.2,7.312V95.173H61.247V78.179H75.766a5.5,5.5,0,0,0,5.494-5.5V58.351c.019-.037.042-.075.061-.112L91.66,53.69Z" transform="translate(245.454 202.75)" fill="url(#linear-gradient)"/>
      <path id="패스_13183" data-name="패스 13183" d="M58.287,40.012A25.995,25.995,0,1,1,32.294,14.017,26,26,0,0,1,58.287,40.012Z" transform="translate(231.817 198.233)" fill="#fff" stroke="rgba(255,255,255,0.1)" stroke-linecap="round" stroke-linejoin="round" stroke-width="1"/>
      <line id="선_30" data-name="선 30" y2="5.559" transform="translate(304.432 228.865)" fill="none" stroke="#fff" stroke-width="2.5"/>
      <line id="선_31" data-name="선 31" y2="5.559" transform="translate(304.432 241.367)" fill="none" stroke="#fff" stroke-width="2.5"/>
      <line id="선_32" data-name="선 32" x1="5.558" transform="translate(307.902 237.895)" fill="none" stroke="#fff" stroke-width="2.5"/>
      <line id="선_33" data-name="선 33" x1="5.558" transform="translate(295.401 237.895)" fill="none" stroke="#fff" stroke-width="2.5"/>
      <path id="패스_13186" data-name="패스 13186" d="M48.243,50.111A5.413,5.413,0,1,1,42.828,44.7,5.415,5.415,0,0,1,48.243,50.111Z" transform="translate(251.449 214.428)" fill="none" stroke="#fff" stroke-width="2.5"/>
      <path id="다각형_12" data-name="다각형 12" d="M12.313,2.4a2,2,0,0,1,3.3,0L25.769,17.175a2,2,0,0,1-1.648,3.133H3.8a2,2,0,0,1-1.648-3.133Z" transform="translate(277.305 224.299) rotate(90)" fill="#fff"/>
    </g>
  </g>
</svg>
