<svg xmlns="http://www.w3.org/2000/svg" width="264" height="186" viewBox="0 0 264 186">
  <g id="그룹_6387" data-name="그룹 6387" transform="translate(-58 -1243)">
    <circle id="타원_177" data-name="타원 177" cx="5" cy="5" r="5" transform="translate(116 1306)" fill="#82f8b3"/>
    <circle id="타원_593" data-name="타원 593" cx="5" cy="5" r="5" transform="translate(116 1346)" fill="#79e7ff"/>
    <circle id="타원_178" data-name="타원 178" cx="5" cy="5" r="5" transform="translate(173 1295)" fill="#82f8b3"/>
    <circle id="타원_594" data-name="타원 594" cx="5" cy="5" r="5" transform="translate(173 1364)" fill="#79e7ff"/>
    <circle id="타원_179" data-name="타원 179" cx="5" cy="5" r="5" transform="translate(233 1280)" fill="#82f8b3"/>
    <circle id="타원_595" data-name="타원 595" cx="5" cy="5" r="5" transform="translate(233 1396)" fill="#79e7ff"/>
    <circle id="타원_180" data-name="타원 180" cx="5" cy="5" r="5" transform="translate(292 1262)" fill="#82f8b3"/>
    <circle id="타원_596" data-name="타원 596" cx="5" cy="5" r="5" transform="translate(292 1419)" fill="#79e7ff"/>
    <circle id="타원_176" data-name="타원 176" cx="5" cy="5" r="5" transform="translate(58 1318)" fill="#82f8b3"/>
    <path id="패스_19294" data-name="패스 19294" d="M-3783,12276l58.487-11.892,56.912-10.671,60.469-15.295,59.046-18.5" transform="translate(3846 -10953)" fill="none" stroke="#82f8b3" stroke-width="1"/>
    <path id="패스_19295" data-name="패스 19295" d="M-3786.185,12276l61.668,28.629,56.465,17.247,60.552,32.381,58.5,22.715" transform="translate(3846 -10953)" fill="none" stroke="#79e7ff" stroke-width="1"/>
    <path id="합치기_63" data-name="합치기 63" d="M3.818,13V6.76H0L6,0l6,6.76H8.182V13Z" transform="translate(273 1243)" fill="#82f8b3"/>
    <path id="합치기_64" data-name="합치기 64" d="M3.818,13V6.76H0L6,0l6,6.76H8.182V13Z" transform="translate(310 1269)" fill="#82f8b3"/>
  </g>
</svg>
