<svg xmlns="http://www.w3.org/2000/svg" width="750" height="232" viewBox="0 0 750 232">
  <g id="그룹_6386" data-name="그룹 6386" transform="translate(-601 -2057)">
    <path id="패스_15105" data-name="패스 15105" d="M16548,17482l141.477-17.283,143.955-10.564,142.633-21.131,137.352-10.566,145.436-18.18" transform="translate(-15941 -15319)" fill="none" stroke="#82f8b3" stroke-width="2"/>
    <circle id="타원_177" data-name="타원 177" cx="6" cy="6" r="6" transform="translate(742 2139)" fill="#82f8b3"/>
    <circle id="타원_186" data-name="타원 186" cx="6" cy="6" r="6" transform="translate(742 2169)" fill="#79e7ff"/>
    <circle id="타원_178" data-name="타원 178" cx="6" cy="6" r="6" transform="translate(884 2129)" fill="#82f8b3"/>
    <circle id="타원_185" data-name="타원 185" cx="6" cy="6" r="6" transform="translate(884 2195)" fill="#79e7ff"/>
    <circle id="타원_179" data-name="타원 179" cx="6" cy="6" r="6" transform="translate(1025 2108)" fill="#82f8b3"/>
    <circle id="타원_184" data-name="타원 184" cx="6" cy="6" r="6" transform="translate(1025 2229)" fill="#79e7ff"/>
    <circle id="타원_180" data-name="타원 180" cx="6" cy="6" r="6" transform="translate(1167 2096)" fill="#82f8b3"/>
    <circle id="타원_183" data-name="타원 183" cx="6" cy="6" r="6" transform="translate(1167 2255)" fill="#79e7ff"/>
    <circle id="타원_181" data-name="타원 181" cx="6" cy="6" r="6" transform="translate(1308 2079)" fill="#82f8b3"/>
    <circle id="타원_182" data-name="타원 182" cx="6" cy="6" r="6" transform="translate(1308 2277)" fill="#79e7ff"/>
    <path id="패스_15106" data-name="패스 15106" d="M16548.16,17481.686l142.1,11.951,140.93,26.082,142.885,34.682,143.346,26.82,139.186,20.807" transform="translate(-15941 -15319)" fill="none" stroke="#79e7ff" stroke-width="2"/>
    <circle id="타원_176" data-name="타원 176" cx="6" cy="6" r="6" transform="translate(601 2157)" fill="#82f8b3"/>
    <path id="합치기_2" data-name="합치기 2" d="M3.818,13V6.76H0L6,0l6,6.76H8.182V13Z" transform="translate(1281 2057)" fill="#82f8b3"/>
    <path id="합치기_3" data-name="합치기 3" d="M3.818,13V6.76H0L6,0l6,6.76H8.182V13Z" transform="translate(1339 2083)" fill="#82f8b3"/>
  </g>
</svg>
