<svg xmlns="http://www.w3.org/2000/svg" width="70" height="55" viewBox="0 0 70 55">
  <path id="패스_15087" data-name="패스 15087" d="M-7.737-175.547q-13.757,1.229-19.827,11.679t-6.069,27.661q0,7.376,4.451,11.474a15.533,15.533,0,0,0,10.925,4.1q6.879,0,9.913-4.508a19.36,19.36,0,0,0,3.035-11.064,13.682,13.682,0,0,0-3.844-10.04Q-13-150.14-19.876-149.321q-.4-7.376,3.439-11.064a9.7,9.7,0,0,1,8.7-2.869q6.879.41,6.879-6.352T-7.737-175.547Zm37.225,0q-13.757,1.229-19.422,11.884T4.4-136.207q0,7.376,4.046,11.474a14.134,14.134,0,0,0,10.52,4.1q7.283,0,10.52-4.3a16.883,16.883,0,0,0,3.237-10.45,14.7,14.7,0,0,0-4.046-10.45q-4.046-4.3-11.329-3.483,0-6.966,3.642-10.45a11.907,11.907,0,0,1,8.5-3.483q6.879.41,6.879-6.352T29.489-175.547Z" transform="translate(33.633 175.635)" fill="#fff"/>
</svg>
