<svg xmlns="http://www.w3.org/2000/svg" xmlns:xlink="http://www.w3.org/1999/xlink" width="216" height="260" viewBox="0 0 216 260">
  <defs>
    <clipPath id="clip-path">
      <path id="패스_19433" data-name="패스 19433" d="M0,0H185V35H0Z" transform="translate(46 388)" fill="#fff" stroke="#707070" stroke-width="1"/>
    </clipPath>
    <clipPath id="clip-path-2">
      <rect id="사각형_7332" data-name="사각형 7332" width="184" height="23" transform="translate(47 437)" fill="#fff" stroke="#707070" stroke-width="1"/>
    </clipPath>
  </defs>
  <g id="그룹_6384" data-name="그룹 6384" transform="translate(-6023 24006)">
    <g id="그룹_6381" data-name="그룹 6381" transform="translate(6006 -24335)">
      <rect id="사각형_6670" data-name="사각형 6670" width="1" height="209" transform="translate(231 331) rotate(90)" fill="#fff" opacity="0.1"/>
      <rect id="사각형_6670-2" data-name="사각형 6670" width="1" height="209" transform="translate(231 342) rotate(90)" fill="#fff" opacity="0.1"/>
      <rect id="사각형_6670-3" data-name="사각형 6670" width="1" height="209" transform="translate(231 353) rotate(90)" fill="#fff" opacity="0.1"/>
      <rect id="사각형_6819" data-name="사각형 6819" width="1" height="209" transform="translate(231 573) rotate(90)" fill="#fff" opacity="0.1"/>
      <rect id="사각형_6818" data-name="사각형 6818" width="1" height="209" transform="translate(231 562) rotate(90)" fill="#fff" opacity="0.1"/>
      <rect id="사각형_6817" data-name="사각형 6817" width="1" height="209" transform="translate(231 551) rotate(90)" fill="#fff" opacity="0.1"/>
      <rect id="사각형_6816" data-name="사각형 6816" width="1" height="209" transform="translate(231 540) rotate(90)" fill="#fff" opacity="0.1"/>
      <rect id="사각형_6815" data-name="사각형 6815" width="1" height="209" transform="translate(231 529) rotate(90)" fill="#fff" opacity="0.1"/>
      <rect id="사각형_6814" data-name="사각형 6814" width="1" height="209" transform="translate(231 518) rotate(90)" fill="#fff" opacity="0.1"/>
      <rect id="사각형_6813" data-name="사각형 6813" width="1" height="209" transform="translate(231 507) rotate(90)" fill="#fff" opacity="0.1"/>
      <rect id="사각형_6812" data-name="사각형 6812" width="1" height="209" transform="translate(231 496) rotate(90)" fill="#fff" opacity="0.1"/>
      <rect id="사각형_6670-4" data-name="사각형 6670" width="1" height="209" transform="translate(231 364) rotate(90)" fill="#fff" opacity="0.1"/>
      <rect id="사각형_6670-5" data-name="사각형 6670" width="1" height="209" transform="translate(231 375) rotate(90)" fill="#fff" opacity="0.1"/>
      <rect id="사각형_6670-6" data-name="사각형 6670" width="1" height="209" transform="translate(231 386) rotate(90)" fill="#fff" opacity="0.1"/>
      <rect id="사각형_6670-7" data-name="사각형 6670" width="1" height="209" transform="translate(231 397) rotate(90)" fill="#fff" opacity="0.1"/>
      <rect id="사각형_6670-8" data-name="사각형 6670" width="1" height="209" transform="translate(231 408) rotate(90)" fill="#fff" opacity="0.1"/>
      <rect id="사각형_6670-9" data-name="사각형 6670" width="1" height="209" transform="translate(231 419) rotate(90)" fill="#fff" opacity="0.1"/>
      <rect id="사각형_6670-10" data-name="사각형 6670" width="1" height="209" transform="translate(231 430) rotate(90)" fill="#fff" opacity="0.1"/>
      <rect id="사각형_6670-11" data-name="사각형 6670" width="1" height="209" transform="translate(231 441) rotate(90)" fill="#fff" opacity="0.1"/>
      <rect id="사각형_6670-12" data-name="사각형 6670" width="1" height="209" transform="translate(231 452) rotate(90)" fill="#fff" opacity="0.1"/>
      <rect id="사각형_6670-13" data-name="사각형 6670" width="1" height="209" transform="translate(231 463) rotate(90)" fill="#fff" opacity="0.1"/>
      <rect id="사각형_6670-14" data-name="사각형 6670" width="1" height="209" transform="translate(231 474) rotate(90)" fill="#fff" opacity="0.1"/>
      <rect id="사각형_6670-15" data-name="사각형 6670" width="1" height="209" transform="translate(231 485) rotate(90)" fill="#fff" opacity="0.1"/>
    </g>
    <g id="그룹_6382" data-name="그룹 6382" transform="translate(6023 -24006)">
      <g id="사각형_6591" data-name="사각형 6591" transform="translate(2 2)" fill="none" stroke="#fff" stroke-width="1" stroke-dasharray="3 2">
        <rect width="212" height="256" stroke="none"/>
        <rect x="0.5" y="0.5" width="211" height="255" fill="none"/>
      </g>
      <rect id="사각형_6592" data-name="사각형 6592" width="5" height="5" transform="translate(0 0)" fill="#fff"/>
      <rect id="사각형_6595" data-name="사각형 6595" width="5" height="5" transform="translate(0 255)" fill="#fff"/>
      <rect id="사각형_6593" data-name="사각형 6593" width="5" height="5" transform="translate(211 0)" fill="#fff"/>
      <rect id="사각형_6594" data-name="사각형 6594" width="5" height="5" transform="translate(211 255)" fill="#fff"/>
    </g>
    <g id="그룹_6383" data-name="그룹 6383" transform="translate(6006 -24335)">
      <rect id="사각형_6641" data-name="사각형 6641" width="1" height="256" transform="translate(32 331)" fill="#fff" opacity="0.1"/>
      <rect id="사각형_6641-2" data-name="사각형 6641" width="1" height="256" transform="translate(43 331)" fill="#fff" opacity="0.1"/>
      <rect id="사각형_6641-3" data-name="사각형 6641" width="1" height="256" transform="translate(54 331)" fill="#fff" opacity="0.1"/>
      <rect id="사각형_6641-4" data-name="사각형 6641" width="1" height="256" transform="translate(65 331)" fill="#fff" opacity="0.1"/>
      <rect id="사각형_6641-5" data-name="사각형 6641" width="1" height="256" transform="translate(76 331)" fill="#fff" opacity="0.1"/>
      <rect id="사각형_6641-6" data-name="사각형 6641" width="1" height="256" transform="translate(87 331)" fill="#fff" opacity="0.1"/>
      <rect id="사각형_6641-7" data-name="사각형 6641" width="1" height="256" transform="translate(98 331)" fill="#fff" opacity="0.1"/>
      <rect id="사각형_6641-8" data-name="사각형 6641" width="1" height="256" transform="translate(109 331)" fill="#fff" opacity="0.1"/>
      <rect id="사각형_6641-9" data-name="사각형 6641" width="1" height="256" transform="translate(120 331)" fill="#fff" opacity="0.1"/>
      <rect id="사각형_6641-10" data-name="사각형 6641" width="1" height="256" transform="translate(131 331)" fill="#fff" opacity="0.1"/>
      <rect id="사각형_6641-11" data-name="사각형 6641" width="1" height="256" transform="translate(142 331)" fill="#fff" opacity="0.1"/>
      <rect id="사각형_6641-12" data-name="사각형 6641" width="1" height="256" transform="translate(153 331)" fill="#fff" opacity="0.1"/>
      <rect id="사각형_6641-13" data-name="사각형 6641" width="1" height="256" transform="translate(164 331)" fill="#fff" opacity="0.1"/>
      <rect id="사각형_6641-14" data-name="사각형 6641" width="1" height="256" transform="translate(175 331)" fill="#fff" opacity="0.1"/>
      <rect id="사각형_6641-15" data-name="사각형 6641" width="1" height="256" transform="translate(186 331)" fill="#fff" opacity="0.1"/>
      <rect id="사각형_6641-16" data-name="사각형 6641" width="1" height="256" transform="translate(197 331)" fill="#fff" opacity="0.1"/>
      <rect id="사각형_6641-17" data-name="사각형 6641" width="1" height="256" transform="translate(208 331)" fill="#fff" opacity="0.1"/>
      <rect id="사각형_6641-18" data-name="사각형 6641" width="1" height="256" transform="translate(219 331)" fill="#fff" opacity="0.1"/>
      <rect id="사각형_6641-19" data-name="사각형 6641" width="1" height="256" transform="translate(230 331)" fill="#fff" opacity="0.1"/>
    </g>
    <g id="패스_19432" data-name="패스 19432" transform="translate(6026 -23971)" fill="rgba(255,255,255,0.1)">
      <path d="M 210.5 222.7050933837891 L 0.5 222.7050933837891 L 0.5 28.80064964294434 C 0.5 13.19562244415283 9.247666358947754 0.5000112652778625 20 0.5000112652778625 L 210.5 0.5000112652778625 L 210.5 222.7050933837891 Z" stroke="none"/>
      <path d="M 20 1.000015258789062 C 17.48617553710938 1.000015258789062 15.04197692871094 1.712387084960938 12.73529052734375 3.117355346679688 C 10.47352600097656 4.494949340820312 8.43597412109375 6.476150512695312 6.679229736328125 9.005889892578125 C 4.903793334960938 11.56259155273438 3.5081787109375 14.54556274414062 2.531173706054688 17.8719482421875 C 1.515151977539062 21.33106994628906 1 25.00801086425781 1 28.8006591796875 L 1 222.2050628662109 L 210 222.2050628662109 L 210 1.000015258789062 L 20 1.000015258789062 M 20 1.52587890625e-05 L 211 1.52587890625e-05 L 211 223.2050628662109 L 0 223.2050628662109 L 0 28.8006591796875 C 0 12.89448547363281 8.954299926757812 1.52587890625e-05 20 1.52587890625e-05 Z" stroke="none" fill="#fff"/>
    </g>
    <g id="마스크_그룹_155" data-name="마스크 그룹 155" transform="translate(6006 -24335)" clip-path="url(#clip-path)">
      <text id="늘_새로운_크리에이티브로" data-name="늘 새로운 크리에이티브로" transform="translate(46.273 418)" fill="none" stroke="#fff" stroke-width="1" font-size="26" font-family="NotoSansCJKkr-Bold, Noto Sans CJK KR" font-weight="700" letter-spacing="-0.05em"><tspan x="0" y="0">늘 새로운 크리에이티브로</tspan></text>
    </g>
    <g id="마스크_그룹_156" data-name="마스크 그룹 156" transform="translate(6006 -24335)" clip-path="url(#clip-path-2)">
      <path id="패스_19434" data-name="패스 19434" d="M4.642-16.126h-2.9v13.09H3.146a38.1,38.1,0,0,0,7-.594L9.9-6.072a34.263,34.263,0,0,1-5.258.528Zm10.89-2.266v7.81H13.706v-7.436H11V.924h2.706V-8.228h1.826V1.87H18.3V-18.392Zm21.384.022H33.99V-8.228h2.926ZM23.188-13.156a2.339,2.339,0,0,1,2.618-2.288,2.3,2.3,0,0,1,2.574,2.288,2.29,2.29,0,0,1-2.574,2.288A2.327,2.327,0,0,1,23.188-13.156Zm8.008,0c0-2.684-2.31-4.62-5.39-4.62-3.1,0-5.434,1.936-5.434,4.62,0,2.706,2.332,4.642,5.434,4.642C28.886-8.514,31.2-10.45,31.2-13.156ZM26.312-.594V-1.87h10.6V-7.392H23.408V-5.17H34.034v1.232H23.43V1.65H37.422V-.594ZM45.738-17.028c-3.168,0-5.566,2.09-5.566,4.994,0,2.926,2.4,4.994,5.566,4.994s5.588-2.068,5.588-4.994C51.326-14.938,48.906-17.028,45.738-17.028Zm0,2.486a2.494,2.494,0,0,1,2.75,2.508,2.494,2.494,0,0,1-2.75,2.508,2.494,2.494,0,0,1-2.75-2.508A2.494,2.494,0,0,1,45.738-14.542Zm7.48-3.85V1.936h2.9V-18.392ZM39.688-2.178A65.309,65.309,0,0,0,52.294-3.1l-.176-2.09a91.126,91.126,0,0,1-12.8.66ZM76.3-12.672v2.024H72.688v-2.024ZM69.85-8.866H66v-2.86h3.85Zm2.838.528H76.3V-3.41h2.9V-18.37H76.3V-15H72.688v-2.024H69.85v3.08H66v-3.08H63.118V-6.556h9.57ZM68.728-.77V-4.862h-2.9v6.4H79.64V-.77Zm24.75-15.378H88.99v-2.134h-2.9v2.134H81.554v2.288H93.478Zm-8.14,6.886c0-1.034.88-1.606,2.2-1.606s2.2.572,2.2,1.606c0,1.078-.88,1.65-2.2,1.65S85.338-8.184,85.338-9.262ZM88.99-5.588c2.112-.44,3.5-1.8,3.5-3.674,0-2.266-2.046-3.806-4.95-3.806s-4.95,1.54-4.95,3.806c0,1.87,1.386,3.234,3.5,3.674v1.716c-1.782.044-3.454.044-4.906.044l.352,2.354A64.66,64.66,0,0,0,93.786-2.31l-.22-2.09c-1.452.22-3.014.33-4.576.418Zm11.044-4.532H97.5v-8.25H94.6V1.892h2.9V-7.722h2.53Zm13.75-4.95H102.828v4.84H117v-1.958H105.688v-1.056h10.956v-4.774h-13.86v1.958h11ZM105.512-1.342h11.2V-6.16h-14.1V-4.2h11.22v1.034h-11.2V1.716h14.63V-.242H105.512Zm-4.972-7.92v2.09h18.348v-2.09Zm30.426.044h-3.96V-14.41h3.96Zm2.86-7.48h-9.658V-6.93h9.658ZM129.36-5.038h-2.9V1.54H140.25V-.77H129.36Zm10.164-7.48V-18.37h-2.9V-3.586h2.9v-6.556h2.684v-2.376Zm19.36-1.364h-11v-1.782H158.73v-2.31H145v6.38h13.882ZM147.708-1.716H158.8V-7.084H144.8v2.178h11.132v1.144h-11.11V1.716h14.5V-.506H147.708Zm-4.972-8.8v2.288h18.326v-2.288ZM167.4-5.126c-1.474,0-2.464-1.606-2.464-4.62,0-2.992.99-4.6,2.464-4.6,1.5,0,2.486,1.606,2.486,4.6C169.884-6.732,168.894-5.126,167.4-5.126Zm8.558-13.266v7.3h-3.388c-.4-3.652-2.442-5.874-5.17-5.874-3.014,0-5.236,2.772-5.236,7.216,0,4.466,2.222,7.26,5.236,7.26,2.816,0,4.884-2.376,5.192-6.248h3.366V1.936h2.9V-18.392Zm12.452,1.936h-2.9V-3.08h1.76a46.511,46.511,0,0,0,9.57-.88l-.286-2.376a49.391,49.391,0,0,1-8.14.836Zm15.18,5.72H200.75v-7.656h-2.9V1.848h2.9V-8.338h2.838Zm1.386-6.556v2.31H211.2c-.374,2.442-2.64,4.488-7.282,5.5l1.056,2.332c6.138-1.364,9.46-4.752,9.46-10.142ZM217.1-.66h-7.458V-2.442H217.1Zm0-4h-7.458V-6.6h-2.882V1.65h13.2V-6.6H217.1Zm5.566-9.35h-2.706V-18.37h-2.9V-7.392h2.9v-4.246h2.706Zm4.444-2.442h-2.882V-3.1h1.8a48.055,48.055,0,0,0,9.9-.946l-.308-2.42a49.525,49.525,0,0,1-8.514.88Zm10.076-1.936V1.87h2.9V-18.392Zm8.8,4.246h6.556V-16.5H243.1V-2.926h1.716a50.444,50.444,0,0,0,9.35-.66l-.286-2.4a50.367,50.367,0,0,1-7.9.638Zm15.136,3.256H258.17v-7.48h-2.9V1.936h2.9V-8.492h2.948Zm2.948,11.2A2.026,2.026,0,0,0,266.09-1.8a2.013,2.013,0,0,0-2.024-2.112,2.009,2.009,0,0,0-2,2.112A2.022,2.022,0,0,0,264.066.308Z" transform="translate(46.273 455.5)" fill="none" stroke="#fff" stroke-width="1"/>
    </g>
    <text id="남다른_광고_아이디어와_전략을_추구하며_창의적인_생각을_존중하고_구체화합니다." data-name="남다른 광고 아이디어와 
전략을 추구하며 
창의적인 생각을
존중하고 구체화합니다." transform="translate(6052 -23841)" fill="#fff" font-size="15" font-family="NotoSansCJKkr-Regular, Noto Sans CJK KR" letter-spacing="-0.05em"><tspan x="0" y="0">남다른 광고 아이디어와 </tspan><tspan x="0" y="25">전략을 추구하며 </tspan><tspan x="0" y="50">창의적인 생각을</tspan><tspan x="0" y="75">존중하고 구체화합니다.</tspan></text>
  </g>
</svg>
