<svg xmlns="http://www.w3.org/2000/svg" width="29" height="23" viewBox="0 0 29 23">
  <path id="패스_19233" data-name="패스 19233" d="M-15.361-152.673q5.7-.514,8.214-4.884t2.514-11.567a6.227,6.227,0,0,0-1.844-4.8A6.4,6.4,0,0,0-11-175.636a4.572,4.572,0,0,0-4.107,1.885,8.153,8.153,0,0,0-1.257,4.627,5.751,5.751,0,0,0,1.592,4.2,5.027,5.027,0,0,0,4.442,1.285,5.7,5.7,0,0,1-1.425,4.627,3.993,3.993,0,0,1-3.6,1.2q-2.85-.171-2.85,2.656T-15.361-152.673Zm-15.422,0q5.7-.514,8.046-4.97t2.347-11.481a6.571,6.571,0,0,0-1.676-4.8,5.827,5.827,0,0,0-4.358-1.714,5.079,5.079,0,0,0-4.358,1.8,7.106,7.106,0,0,0-1.341,4.37,6.178,6.178,0,0,0,1.676,4.37,5.229,5.229,0,0,0,4.694,1.457,5.81,5.81,0,0,1-1.509,4.37,4.909,4.909,0,0,1-3.52,1.457q-2.85-.171-2.85,2.656T-30.783-152.673Z" transform="translate(33.633 175.636)" fill="#fff"/>
</svg>
